<svg version="1.1" id="Icon" xmlns="http://www.w3.org/2000/svg" xmlns:xlink="http://www.w3.org/1999/xlink" x="0px" y="0px"
	 width="128px" height="128px" viewBox="0 0 128 128" style="enable-background:new 0 0 128 128;" xml:space="preserve">
<style type="text/css">
	.svg-weather{fill:#000000;}
</style>
<path id="Cloud_2_" class="svg-weather" d="M85.5,70.9c-3.1-15.9-17-27.5-33.4-27.5c-11.9,0-22.9,6.2-29.1,16.4C12.3,63.4,5,73.5,5,84.9
	c0,14.6,11.9,26.5,26.5,26.5h46.9c11.5,0,20.9-9.4,20.9-20.9C99.3,81.7,93.6,73.9,85.5,70.9z M78.4,103.4H31.5
	c-10.2,0-18.5-8.3-18.5-18.5c0-8.4,5.7-15.7,13.7-17.9l1.7-0.4l0.8-1.5c4.6-8.4,13.3-13.7,22.9-13.7c13.3,0,24.4,9.9,25.8,23.1
	l0.3,2.9l2.8,0.6c5.9,1.3,10.2,6.6,10.2,12.6C91.3,97.7,85.5,103.4,78.4,103.4z"/>
<path id="Moon_1_" class="svg-weather" d="M120.9,50.9c-1.5-0.8-3.3-0.6-4.5,0.5c-3.6,3.2-8.3,4.9-13.1,4.9c-11,0-20-9-20-20
	c0-4.8,1.7-9.5,4.9-13.1c1.1-1.3,1.3-3.1,0.5-4.5c-0.8-1.5-2.4-2.3-4.1-2.1C71.5,18.4,60.9,27.7,57,39.7c2.7,0.3,5.3,1,7.8,1.9
	c2.1-6,6.4-11,11.9-14.1c-0.9,2.8-1.4,5.7-1.4,8.7c0,15.4,12.6,28,28,28c3,0,5.9-0.5,8.7-1.4c-3.1,5.6-8.3,9.9-14.4,12
	c1.7,2.1,3.1,4.5,4,7c11.1-4.4,19.6-14.5,21.3-27C123.2,53.3,122.4,51.7,120.9,50.9z"/>
</svg>
