<svg version="1.1" id="Icon" xmlns="http://www.w3.org/2000/svg" xmlns:xlink="http://www.w3.org/1999/xlink" x="0px" y="0px"
	 width="128px" height="128px" viewBox="0 0 128 128" style="enable-background:new 0 0 128 128;" xml:space="preserve">
<style type="text/css">
	.svg-weather{fill:#000000;}
</style>
<g id="Drops_7_">
	<path id="Drop_31_" class="svg-weather" d="M53.9,122.7c-2.1-0.6-3.4-2.8-2.8-4.9l2.1-7.7c0.6-2.1,2.8-3.4,4.9-2.8c2.1,0.6,3.4,2.8,2.8,4.9
		l-2.1,7.7C58.2,122,56,123.3,53.9,122.7z"/>
	<path id="Drop_30_" class="svg-weather" d="M59,103.4c-2.1-0.6-3.4-2.8-2.8-4.9l2.1-7.7c0.6-2.1,2.8-3.4,4.9-2.8c2.1,0.6,3.4,2.8,2.8,4.9
		l-2.1,7.7C63.4,102.7,61.2,104,59,103.4z"/>
</g>
<g id="Snow_16_">
	<g id="Snow_19_">
		<path class="svg-weather" d="M46.2,99.2h-3.1l1.5-2.7c1.1-1.9,0.4-4.4-1.5-5.5c-1.9-1.1-4.4-0.4-5.5,1.5l-1.5,2.7l-1.5-2.7
			c-1.1-1.9-3.6-2.6-5.5-1.5s-2.6,3.6-1.5,5.5l1.5,2.7h-3.1c-2.2,0-4,1.8-4,4s1.8,4,4,4h3.1l-1.5,2.7c-1.1,1.9-0.4,4.4,1.5,5.5
			s4.4,0.4,5.5-1.5l1.5-2.7l1.5,2.7c1.1,1.9,3.6,2.6,5.5,1.5c1.9-1.1,2.6-3.6,1.5-5.5l-1.5-2.7h3.1c2.2,0,4-1.8,4-4
			S48.4,99.2,46.2,99.2z"/>
	</g>
</g>
<path id="Cloud_24_" class="svg-weather" d="M80.5,66.7c-3.1-15.9-17-27.5-33.4-27.5c0,0,0,0,0,0v0c-11.9,0-22.9,6.2-29.1,16.4
	C7.4,59.1,0,69.2,0,80.7c0,9.1,4.6,17.1,11.6,21.8c0.1,0.1,0.2,0.2,0.4,0.2c0.6,0.3,1.3,0.6,2,0.6c0.8,0,1.6-0.2,2.2-0.7
	c1.1-0.7,1.8-1.9,1.8-3.3c0-2.2-1.8-3.4-1.8-3.4C11.3,92.7,8,87,8,80.7c0-8.4,5.7-15.7,13.7-17.9l1.7-0.4l0.8-1.5
	c4.6-8.4,13.3-13.6,22.9-13.7l0,0c0,0,0,0,0,0c13.3,0,24.4,9.9,25.8,23.1l0.3,2.9l2.8,0.6C82,75,86.3,80.3,86.3,86.3
	c0,7.1-5.8,12.9-12.9,12.9h-1.7c-2.2,0-4,1.8-4,4s1.8,4,4,4h1.7c11.5,0,20.9-9.4,20.9-20.9C94.3,77.5,88.6,69.6,80.5,66.7z"/>
<g id="Sun_12_">
	<path id="Shine_75_" class="svg-weather" d="M76,25.2c-2.2,0-4-1.8-4-4v-12c0-2.2,1.8-4,4-4s4,1.8,4,4v12C80,23.4,78.2,25.2,76,25.2z"/>
	<path id="Shine_74_" class="svg-weather" d="M124,61.2h-12c-2.2,0-4-1.8-4-4s1.8-4,4-4h12c2.2,0,4,1.8,4,4S126.2,61.2,124,61.2z"/>
	<path id="Shine_73_" class="svg-weather" d="M101.5,35.7c-1,0-2-0.4-2.8-1.2c-1.6-1.6-1.6-4.1,0-5.7l8.5-8.5c1.6-1.6,4.1-1.6,5.7,0
		c1.6,1.6,1.6,4.1,0,5.7l-8.5,8.5C103.5,35.3,102.5,35.7,101.5,35.7z"/>
	<path id="Shine_72_" class="svg-weather" d="M50.6,35.7c-1,0-2-0.4-2.8-1.2l-8.5-8.5c-1.6-1.6-1.6-4.1,0-5.7c1.6-1.6,4.1-1.6,5.7,0l8.5,8.5
		c1.6,1.6,1.6,4.1,0,5.7C52.6,35.3,51.6,35.7,50.6,35.7z"/>
	<path id="Shine_71_" class="svg-weather" d="M110,95.1c-1,0-2-0.4-2.8-1.2l-8.5-8.5c-1.6-1.6-1.6-4.1,0-5.7c1.6-1.6,4.1-1.6,5.7,0l8.5,8.5
		c1.6,1.6,1.6,4.1,0,5.7C112,94.7,111,95.1,110,95.1z"/>
	<path id="Semi_Circle_9_" class="svg-weather" d="M76,41.2c8.8,0,16,7.2,16,16c0,3.6-1.2,7-3.3,9.7c2.1,1.7,4,3.7,5.4,6
		c3.6-4.2,5.9-9.7,5.9-15.7c0-13.2-10.8-24-24-24c-5.4,0-10.5,1.8-14.5,4.9c2.8,1.2,5.5,2.7,8,4.5C71.5,41.7,73.7,41.2,76,41.2z"/>
</g>
</svg>
