<svg version="1.1" id="Icon" xmlns="http://www.w3.org/2000/svg" xmlns:xlink="http://www.w3.org/1999/xlink" x="0px" y="0px"
	 width="128px" height="128px" viewBox="0 0 128 128" style="enable-background:new 0 0 128 128;" xml:space="preserve">
<style type="text/css">
	.svg-weather{fill:#000000;}
</style>
<g id="Sun_1_">
	<path id="Shine_20_" class="svg-weather" d="M76.1,33c-2.2,0-4-1.8-4-4V17c0-2.2,1.8-4,4-4s4,1.8,4,4v12C80.1,31.2,78.3,33,76.1,33z"/>
	<path id="Shine_19_" class="svg-weather" d="M124,69h-12c-2.2,0-4-1.8-4-4s1.8-4,4-4h12c2.2,0,4,1.8,4,4S126.2,69,124,69z"/>
	<path id="Shine_18_" class="svg-weather" d="M101.5,43.5c-1,0-2-0.4-2.8-1.2c-1.6-1.6-1.6-4.1,0-5.7l8.5-8.5c1.6-1.6,4.1-1.6,5.7,0
		c1.6,1.6,1.6,4.1,0,5.7l-8.5,8.5C103.6,43.2,102.5,43.5,101.5,43.5z"/>
	<path id="Shine_17_" class="svg-weather" d="M50.6,43.5c-1,0-2-0.4-2.8-1.2l-8.5-8.5c-1.6-1.6-1.6-4.1,0-5.7c1.6-1.6,4.1-1.6,5.7,0l8.5,8.5
		c1.6,1.6,1.6,4.1,0,5.7C52.7,43.2,51.6,43.5,50.6,43.5z"/>
	<path id="Shine_16_" class="svg-weather" d="M110,102.9c-1,0-2-0.4-2.8-1.2l-8.5-8.5c-1.6-1.6-1.6-4.1,0-5.7c1.6-1.6,4.1-1.6,5.7,0l8.5,8.5
		c1.6,1.6,1.6,4.1,0,5.7C112.1,102.6,111,102.9,110,102.9z"/>
	<path id="Semi_Circle" class="svg-weather" d="M76.1,49c8.8,0,16,7.2,16,16c0,3.6-1.2,7-3.3,9.7c2.1,1.7,4,3.7,5.4,6
		c3.6-4.2,5.9-9.7,5.9-15.7c0-13.2-10.8-24-24-24c-5.4,0-10.5,1.8-14.5,4.9c2.8,1.2,5.5,2.7,8,4.5C71.6,49.5,73.7,49,76.1,49z"/>
</g>
<path id="Cloud" class="svg-weather" d="M80.5,74.5C77.4,58.6,63.5,47,47.1,47C35.2,47,24.2,53.2,18,63.4C7.3,67,0,77.1,0,88.5
	C0,103.1,11.9,115,26.5,115h46.9c11.5,0,20.9-9.4,20.9-20.9C94.3,85.3,88.6,77.5,80.5,74.5z M73.4,107H26.5C16.3,107,8,98.7,8,88.5
	c0-8.4,5.7-15.7,13.7-17.9l1.7-0.4l0.8-1.5C28.8,60.2,37.6,55,47.1,55c13.3,0,24.4,9.9,25.8,23.1l0.3,2.9l2.8,0.6
	c5.9,1.3,10.2,6.6,10.2,12.6C86.3,101.2,80.5,107,73.4,107z"/>
</svg>
