<svg version="1.1" id="Icon" xmlns="http://www.w3.org/2000/svg" xmlns:xlink="http://www.w3.org/1999/xlink" x="0px" y="0px"
	 width="128px" height="128px" viewBox="0 0 128 128" style="enable-background:new 0 0 128 128;" xml:space="preserve">
<style type="text/css">
	.svg-weather{fill:#000000;}
</style>
<g id="Fog_8_">
	<g id="Fog_13_">
		<path id="Fog_15_" class="svg-weather" d="M98.4,106h-18c-2.2,0-4-1.8-4-4s1.8-4,4-4h18c2.2,0,4,1.8,4,4S100.6,106,98.4,106z"/>
		<path id="Fog_14_" class="svg-weather" d="M68.4,106h-52c-2.2,0-4-1.8-4-4s1.8-4,4-4h52c2.2,0,4,1.8,4,4S70.6,106,68.4,106z"/>
	</g>
	<g id="Fog_9_">
		<path id="Fog_11_" class="svg-weather" d="M47.4,74h34c2.2,0,4-1.8,4-4s-1.8-4-4-4h-34c-2.2,0-4,1.8-4,4S45.2,74,47.4,74z"/>
	</g>
</g>
<path id="Cloud_16_" class="svg-weather" d="M115.6,82H98.2c2.8-3.6,4.5-8,4.5-12.9c0-8.8-5.6-16.7-13.8-19.6C85.9,33.6,72,22,55.6,22
	c-11.9,0-22.9,6.2-29.1,16.4c-10.7,3.6-18,13.7-18,25.1C8.4,78.1,20.3,90,34.9,90h46.9c0.2,0,0.4,0,0.6,0v0h33.2c2.2,0,4-1.8,4-4
	S117.8,82,115.6,82z M34.9,82c-10.2,0-18.5-8.3-18.5-18.5c0-8.4,5.7-15.7,13.7-17.9l1.7-0.4l0.8-1.5C37.2,35.2,46,30,55.6,30
	c13.3,0,24.4,9.9,25.8,23.1l0.3,2.9l2.8,0.6c5.9,1.3,10.2,6.6,10.2,12.6c0,7.1-5.8,12.9-12.9,12.9H34.9z"/>
</svg>
