<svg version="1.1" id="Icon" xmlns="http://www.w3.org/2000/svg" xmlns:xlink="http://www.w3.org/1999/xlink" x="0px" y="0px"
	 width="128px" height="128px" viewBox="0 0 128 128" style="enable-background:new 0 0 128 128;" xml:space="preserve">
<style type="text/css">
	.svg-weather{fill:#000000;}
</style>
<g id="Rain">
	<g id="Rain_8_">
		<path class="svg-weather" d="M57.7,107.7c-2.1-0.6-3.4-2.8-2.8-4.9l7.2-27c0.6-2.1,2.8-3.4,4.9-2.8c2.1,0.6,3.4,2.8,2.8,4.9l-7.2,27
			C62,107,59.8,108.3,57.7,107.7z"/>
	</g>
	<g id="Rain_5_">
		<path class="svg-weather" d="M70.7,103.7c-2.1-0.6-3.4-2.8-2.8-4.9l7.2-27c0.6-2.1,2.8-3.4,4.9-2.8c2.1,0.6,3.4,2.8,2.8,4.9l-7.2,27
			C75,103,72.8,104.3,70.7,103.7z"/>
	</g>
	<g id="Rain_1_">
		<path class="svg-weather" d="M45.7,103.7c-2.1-0.6-3.4-2.8-2.8-4.9l7.2-27c0.6-2.1,2.8-3.4,4.9-2.8c2.1,0.6,3.4,2.8,2.8,4.9l-7.2,27
			C50,103,47.8,104.3,45.7,103.7z"/>
	</g>
</g>
<path id="Cloud_7_" class="svg-weather" d="M97.4,47.7c-3.1-15.9-17-27.5-33.4-27.5c-11.9,0-22.9,6.2-29.1,16.4c-10.7,3.6-18,13.7-18,25.1
	c0,12.7,9,23.4,21.1,25.9c0,0,0,0,0.1,0c0.2,0,0.5,0.1,0.8,0.1c2.2,0,4-1.8,4-4c0-1.9-1.3-3.5-3.1-3.9c0,0,0,0-0.1,0
	c-8.4-1.8-14.7-9.2-14.7-18.1c0-8.4,5.7-15.7,13.7-17.9l1.7-0.4l0.8-1.5c4.6-8.4,13.3-13.7,22.9-13.7c13.3,0,24.4,9.9,25.8,23.1
	l0.3,2.9l2.8,0.6c5.9,1.3,10.2,6.6,10.2,12.6c0,7.1-5.8,12.9-12.9,12.9h-1.7c-2.2,0-4,1.8-4,4s1.8,4,4,4h1.7
	c11.5,0,20.9-9.4,20.9-20.9C111.1,58.5,105.5,50.6,97.4,47.7z"/>
</svg>
