<svg version="1.1" id="Icon" xmlns="http://www.w3.org/2000/svg" xmlns:xlink="http://www.w3.org/1999/xlink" x="0px" y="0px"
	 width="128px" height="128px" viewBox="0 0 128 128" style="enable-background:new 0 0 128 128;" xml:space="preserve">
<style type="text/css">
	.svg-weather{fill:#000000;}
</style>
<g id="Thunder_1_">
	<path class="svg-weather" d="M55.6,102h-5l3.8-9.2c0.3-0.6,0.2-1.3-0.2-1.9c-0.4-0.6-1-0.9-1.7-0.9h-7c-0.8,0-1.6,0.5-1.9,1.3l-7,18
		c-0.2,0.6-0.2,1.3,0.2,1.9c0.4,0.5,1,0.9,1.7,0.9h4.1l-5.9,13.2c-0.4,0.9-0.1,2,0.8,2.5c0.3,0.2,0.7,0.3,1,0.3
		c0.6,0,1.2-0.3,1.6-0.8l16.9-21.9c0.3-0.4,0.5-0.8,0.5-1.3C57.6,102.9,56.7,102,55.6,102z"/>
</g>
<path id="Cloud_13_" class="svg-weather" d="M80.5,61.5C77.4,45.6,63.5,34,47.1,34C35.2,34,24.2,40.2,18,50.4C7.3,54,0,64.1,0,75.5
	C0,90.1,11.9,102,26.5,102h3.6c2.2,0,4-1.8,4-4c0-2.2-1.8-4-4-4h-3.6C16.3,94,8,85.7,8,75.5c0-8.4,5.7-15.7,13.7-17.9l1.7-0.4
	l0.8-1.5C28.8,47.2,37.6,42,47.1,42c13.3,0,24.4,9.9,25.8,23.1l0.3,2.9l2.8,0.6c5.9,1.3,10.2,6.6,10.2,12.6
	c0,7.1-5.8,12.9-12.9,12.9h-7.3c-2.2,0-4,1.8-4,4c0,2.2,1.8,4,4,4h7.3c11.5,0,20.9-9.4,20.9-20.9C94.3,72.3,88.6,64.5,80.5,61.5z"/>
<g id="Sun_5_">
	<path id="Shine_40_" class="svg-weather" d="M76.1,20c-2.2,0-4-1.8-4-4V4c0-2.2,1.8-4,4-4s4,1.8,4,4v12C80.1,18.2,78.3,20,76.1,20z"/>
	<path id="Shine_39_" class="svg-weather" d="M124,56h-12c-2.2,0-4-1.8-4-4s1.8-4,4-4h12c2.2,0,4,1.8,4,4S126.2,56,124,56z"/>
	<path id="Shine_38_" class="svg-weather" d="M101.5,30.5c-1,0-2-0.4-2.8-1.2c-1.6-1.6-1.6-4.1,0-5.7l8.5-8.5c1.6-1.6,4.1-1.6,5.7,0
		c1.6,1.6,1.6,4.1,0,5.7l-8.5,8.5C103.6,30.2,102.5,30.5,101.5,30.5z"/>
	<path id="Shine_37_" class="svg-weather" d="M50.6,30.5c-1,0-2-0.4-2.8-1.2l-8.5-8.5c-1.6-1.6-1.6-4.1,0-5.7c1.6-1.6,4.1-1.6,5.7,0l8.5,8.5
		c1.6,1.6,1.6,4.1,0,5.7C52.7,30.2,51.6,30.5,50.6,30.5z"/>
	<path id="Shine_36_" class="svg-weather" d="M110,89.9c-1,0-2-0.4-2.8-1.2l-8.5-8.5c-1.6-1.6-1.6-4.1,0-5.7c1.6-1.6,4.1-1.6,5.7,0l8.5,8.5
		c1.6,1.6,1.6,4.1,0,5.7C112.1,89.6,111,89.9,110,89.9z"/>
	<path id="Semi_Circle_4_" class="svg-weather" d="M76.1,36c8.8,0,16,7.2,16,16c0,3.6-1.2,7-3.3,9.7c2.1,1.7,4,3.7,5.4,6
		c3.6-4.2,5.9-9.7,5.9-15.7c0-13.2-10.8-24-24-24c-5.4,0-10.5,1.8-14.5,4.9c2.8,1.2,5.5,2.7,8,4.5C71.6,36.5,73.7,36,76.1,36z"/>
</g>
</svg>
