<svg version="1.1" id="Icon" xmlns="http://www.w3.org/2000/svg" xmlns:xlink="http://www.w3.org/1999/xlink" x="0px" y="0px"
	 width="128px" height="128px" viewBox="0 0 128 128" style="enable-background:new 0 0 128 128;" xml:space="preserve">
<style type="text/css">
	.svg-weather{fill:#000000;}
</style>
<g id="Drops_3_">
	<path id="Drop_23_" class="svg-weather" d="M58.7,101.1c-2.1-0.6-3.4-2.8-2.8-4.9l2.1-7.7c0.6-2.1,2.8-3.4,4.9-2.8c2.1,0.6,3.4,2.8,2.8,4.9
		l-2.1,7.7C63,100.4,60.8,101.7,58.7,101.1z"/>
	<path id="Drop_22_" class="svg-weather" d="M63.9,81.8c-2.1-0.6-3.4-2.8-2.8-4.9l2.1-7.7c0.6-2.1,2.8-3.4,4.9-2.8c2.1,0.6,3.4,2.8,2.8,4.9
		L68.8,79C68.2,81.1,66,82.4,63.9,81.8z"/>
	<path id="Drop_21_" class="svg-weather" d="M70.7,101.1c-2.1-0.6-3.4-2.8-2.8-4.9l2.1-7.7c0.6-2.1,2.8-3.4,4.9-2.8c2.1,0.6,3.4,2.8,2.8,4.9
		l-2.1,7.7C75,100.4,72.8,101.7,70.7,101.1z"/>
	<path id="Drop_20_" class="svg-weather" d="M75.9,81.8c-2.1-0.6-3.4-2.8-2.8-4.9l2.1-7.7c0.6-2.1,2.8-3.4,4.9-2.8c2.1,0.6,3.4,2.8,2.8,4.9
		L80.8,79C80.2,81.1,78,82.4,75.9,81.8z"/>
</g>
<g id="Cloud__x2B__Thunder_2_">
	<path class="svg-weather" d="M97.4,45.1c-3.1-15.9-17-27.5-33.4-27.5c-11.9,0-22.9,6.2-29.1,16.4c-10.7,3.6-18,13.7-18,25.1
		c0,12.2,8.3,22.5,19.5,25.5l-2.8,7.1c-0.2,0.6-0.2,1.3,0.2,1.9c0.4,0.5,1,0.9,1.7,0.9h4.1l-5.9,13.2c-0.4,0.9-0.1,2,0.8,2.5
		c0.3,0.2,0.7,0.3,1,0.3c0.6,0,1.2-0.3,1.6-0.8L54,87.7c0.3-0.4,0.5-0.8,0.5-1.3c0-1.1-0.9-2-2-2h-5l3.8-9.2
		c0.3-0.6,0.2-1.3-0.2-1.9c-0.4-0.6-1-0.9-1.7-0.9h-7c-0.8,0-1.6,0.5-1.9,1.3l-1.3,3.4c-8.2-1.9-14.4-9.2-14.4-18
		c0-8.4,5.7-15.7,13.7-17.9l1.7-0.4l0.8-1.5c4.6-8.4,13.3-13.7,22.9-13.7c13.3,0,24.4,9.9,25.8,23.1l0.3,2.9l2.8,0.6
		c5.9,1.3,10.2,6.6,10.2,12.6c0,7.1-5.8,12.9-12.9,12.9h-1.7c-2.2,0-4,1.8-4,4c0,2.2,1.8,4,4,4h1.7c11.5,0,20.9-9.4,20.9-20.9
		C111.1,55.9,105.5,48,97.4,45.1z"/>
</g>
</svg>
