<svg version="1.1" id="Icon" xmlns="http://www.w3.org/2000/svg" xmlns:xlink="http://www.w3.org/1999/xlink" x="0px" y="0px"
	 width="128px" height="128px" viewBox="0 0 128 128" style="enable-background:new 0 0 128 128;" xml:space="preserve">
<style type="text/css">
	.svg-weather{fill:#000000;}
</style>
<path id="Cloud_4_" class="svg-weather" d="M87.4,62.1c-3.1-15.9-17-27.5-33.4-27.5c-11.9,0-22.9,6.2-29.1,16.4c-10.7,3.6-18,13.7-18,25.1
	c0,14.6,11.9,26.5,26.5,26.5h46.9c11.5,0,20.9-9.4,20.9-20.9C101.1,72.9,95.5,65.1,87.4,62.1z M80.3,94.6H33.4
	c-10.2,0-18.5-8.3-18.5-18.5c0-8.4,5.7-15.7,13.7-17.9l1.7-0.4l0.8-1.5c4.6-8.4,13.3-13.7,22.9-13.7c13.3,0,24.4,9.9,25.8,23.1
	l0.3,2.9l2.8,0.6c5.9,1.3,10.2,6.6,10.2,12.6C93.1,88.8,87.4,94.6,80.3,94.6z"/>
<path id="Cloud_3_" class="svg-weather" d="M121.1,64.7c0-7.4-4.6-14-11.4-16.6C107,35,95.4,25.4,81.8,25.4c-6.7,0-13.1,2.3-18.1,6.4
	c3.2,0.8,6.2,2.1,9,3.7c2.8-1.4,5.9-2.1,9.1-2.1c10.5,0,19.3,7.9,20.5,18.3l0.3,2.9l2.8,0.6c4.5,1,7.8,5,7.8,9.6
	c0,5.2-4,9.4-9.1,9.8c0.7,2.3,1.1,4.7,1.1,7.2c0,0.3,0,0.5,0,0.8C114.1,81.6,121.1,74,121.1,64.7z"/>
</svg>
