<svg version="1.1" id="Icon" xmlns="http://www.w3.org/2000/svg" xmlns:xlink="http://www.w3.org/1999/xlink" x="0px" y="0px"
	 width="128px" height="128px" viewBox="0 0 128 128" style="enable-background:new 0 0 128 128;" xml:space="preserve">
<style type="text/css">
	.svg-weather{fill:#000000;}
</style>
<g id="Drops_6_">
	<path id="Drop_33_" class="svg-weather" d="M70.7,105.7c-2.1-0.6-3.4-2.8-2.8-4.9l2.1-7.7c0.6-2.1,2.8-3.4,4.9-2.8c2.1,0.6,3.4,2.8,2.8,4.9
		l-2.1,7.7C75,105,72.8,106.3,70.7,105.7z"/>
	<path id="Drop_32_" class="svg-weather" d="M75.9,86.4c-2.1-0.6-3.4-2.8-2.8-4.9l2.1-7.7c0.6-2.1,2.8-3.4,4.9-2.8c2.1,0.6,3.4,2.8,2.8,4.9
		l-2.1,7.7C80.2,85.7,78,87,75.9,86.4z"/>
</g>
<g id="Snow_9_">
	<g id="Snow_17_">
		<path class="svg-weather" d="M63,82.2h-3.1l1.5-2.7c1.1-1.9,0.4-4.4-1.5-5.5s-4.4-0.4-5.5,1.5L53,78.2l-1.5-2.7c-1.1-1.9-3.6-2.6-5.5-1.5
			s-2.6,3.6-1.5,5.5l1.5,2.7H43c-2.2,0-4,1.8-4,4s1.8,4,4,4h3.1l-1.5,2.7c-1.1,1.9-0.4,4.4,1.5,5.5s4.4,0.4,5.5-1.5l1.5-2.7l1.5,2.7
			c1.1,1.9,3.6,2.6,5.5,1.5s2.6-3.6,1.5-5.5l-1.5-2.7H63c2.2,0,4-1.8,4-4S65.2,82.2,63,82.2z"/>
	</g>
</g>
<path id="Cloud_20_" class="svg-weather" d="M97.4,49.7c-3.1-15.9-17-27.5-33.4-27.5c0,0,0,0,0,0v0c-11.9,0-22.9,6.2-29.1,16.4
	c-10.7,3.6-18,13.7-18,25.1c0,9.1,4.6,17.1,11.6,21.8c0.1,0.1,0.2,0.2,0.4,0.2c0.6,0.3,1.3,0.6,2,0.6c0.8,0,1.6-0.2,2.2-0.7
	c1.1-0.7,1.8-1.9,1.8-3.3c0-2.2-1.8-3.4-1.8-3.4c-4.9-3.3-8.2-8.9-8.2-15.3c0-8.4,5.7-15.7,13.7-17.9l1.7-0.4l0.8-1.5
	c4.6-8.4,13.3-13.6,22.9-13.7l0,0c0,0,0,0,0,0c13.3,0,24.4,9.9,25.8,23.1l0.3,2.9l2.8,0.6c5.9,1.3,10.2,6.6,10.2,12.6
	c0,7.1-5.8,12.9-12.9,12.9h-1.7c-2.2,0-4,1.8-4,4s1.8,4,4,4h1.7c11.5,0,20.9-9.4,20.9-20.9C111.1,60.5,105.5,52.6,97.4,49.7z"/>
</svg>
