<svg version="1.1" id="Icon" xmlns="http://www.w3.org/2000/svg" xmlns:xlink="http://www.w3.org/1999/xlink" x="0px" y="0px"
	 width="128px" height="128px" viewBox="0 0 128 128" style="enable-background:new 0 0 128 128;" xml:space="preserve">
<style type="text/css">
	.svg-weather{fill:#000000;}
</style>
<g id="Drops_4_">
	<path id="Drop_25_" class="svg-weather" d="M41.8,118.1c-2.1-0.6-3.4-2.8-2.8-4.9l2.1-7.7c0.6-2.1,2.8-3.4,4.9-2.8c2.1,0.6,3.4,2.8,2.8,4.9
		l-2.1,7.7C46.2,117.5,44,118.7,41.8,118.1z"/>
	<path id="Drop_24_" class="svg-weather" d="M47,98.8c-2.1-0.6-3.4-2.8-2.8-4.9l2.1-7.7c0.6-2.1,2.8-3.4,4.9-2.8c2.1,0.6,3.4,2.8,2.8,4.9
		L51.9,96C51.3,98.1,49.2,99.4,47,98.8z"/>
	<path id="Drop_19_" class="svg-weather" d="M53.8,118.1c-2.1-0.6-3.4-2.8-2.8-4.9l2.1-7.7c0.6-2.1,2.8-3.4,4.9-2.8c2.1,0.6,3.4,2.8,2.8,4.9
		l-2.1,7.7C58.2,117.5,56,118.7,53.8,118.1z"/>
	<path id="Drop_18_" class="svg-weather" d="M59,98.8c-2.1-0.6-3.4-2.8-2.8-4.9l2.1-7.7c0.6-2.1,2.8-3.4,4.9-2.8c2.1,0.6,3.4,2.8,2.8,4.9
		L63.9,96C63.3,98.1,61.2,99.4,59,98.8z"/>
</g>
<g id="Cloud__x2B__Thunder_3_">
	<path class="svg-weather" d="M80.5,62.1c-3.1-15.9-17-27.5-33.4-27.5C35.2,34.6,24.2,40.8,18,51C7.3,54.6,0,64.7,0,76.1
		c0,12.2,8.3,22.5,19.5,25.5l-2.8,7.1c-0.2,0.6-0.2,1.3,0.2,1.9c0.4,0.5,1,0.9,1.7,0.9h4.1l-5.9,13.2c-0.4,0.9-0.1,2,0.8,2.5
		c0.3,0.2,0.7,0.3,1,0.3c0.6,0,1.2-0.3,1.6-0.8l16.9-21.9c0.3-0.4,0.5-0.8,0.5-1.3c0-1.1-0.9-2-2-2h-5l3.8-9.2
		c0.3-0.6,0.2-1.3-0.2-1.9c-0.4-0.6-1-0.9-1.7-0.9h-7c-0.8,0-1.6,0.5-1.9,1.3l-1.3,3.4C14.2,92.3,8,84.9,8,76.1
		c0-8.4,5.7-15.7,13.7-17.9l1.7-0.4l0.8-1.5c4.6-8.4,13.3-13.7,22.9-13.7c13.3,0,24.4,9.9,25.8,23.1l0.3,2.9l2.8,0.6
		c5.9,1.3,10.2,6.6,10.2,12.6c0,7.1-5.8,12.9-12.9,12.9h-1.7c-2.2,0-4,1.8-4,4c0,2.2,1.8,4,4,4h1.7c11.5,0,20.9-9.4,20.9-20.9
		C94.3,72.9,88.6,65.1,80.5,62.1z"/>
</g>
<g id="Sun_6_">
	<path id="Shine_45_" class="svg-weather" d="M76.1,20.6c-2.2,0-4-1.8-4-4v-12c0-2.2,1.8-4,4-4s4,1.8,4,4v12C80.1,18.8,78.3,20.6,76.1,20.6z
		"/>
	<path id="Shine_44_" class="svg-weather" d="M124,56.6h-12c-2.2,0-4-1.8-4-4s1.8-4,4-4h12c2.2,0,4,1.8,4,4S126.2,56.6,124,56.6z"/>
	<path id="Shine_43_" class="svg-weather" d="M101.5,31.1c-1,0-2-0.4-2.8-1.2c-1.6-1.6-1.6-4.1,0-5.7l8.5-8.5c1.6-1.6,4.1-1.6,5.7,0
		c1.6,1.6,1.6,4.1,0,5.7l-8.5,8.5C103.6,30.7,102.5,31.1,101.5,31.1z"/>
	<path id="Shine_42_" class="svg-weather" d="M50.6,31.1c-1,0-2-0.4-2.8-1.2l-8.5-8.5c-1.6-1.6-1.6-4.1,0-5.7c1.6-1.6,4.1-1.6,5.7,0l8.5,8.5
		c1.6,1.6,1.6,4.1,0,5.7C52.7,30.7,51.6,31.1,50.6,31.1z"/>
	<path id="Shine_41_" class="svg-weather" d="M110,90.5c-1,0-2-0.4-2.8-1.2l-8.5-8.5c-1.6-1.6-1.6-4.1,0-5.7c1.6-1.6,4.1-1.6,5.7,0l8.5,8.5
		c1.6,1.6,1.6,4.1,0,5.7C112.1,90.1,111,90.5,110,90.5z"/>
	<path id="Semi_Circle_5_" class="svg-weather" d="M76.1,36.6c8.8,0,16,7.2,16,16c0,3.6-1.2,7-3.3,9.7c2.1,1.7,4,3.7,5.4,6
		c3.6-4.2,5.9-9.7,5.9-15.7c0-13.2-10.8-24-24-24c-5.4,0-10.5,1.8-14.5,4.9c2.8,1.2,5.5,2.7,8,4.5C71.6,37.1,73.7,36.6,76.1,36.6z"
		/>
</g>
</svg>
