<svg version="1.1" id="Icon" xmlns="http://www.w3.org/2000/svg" xmlns:xlink="http://www.w3.org/1999/xlink" x="0px" y="0px"
	 width="128px" height="128px" viewBox="0 0 128 128" style="enable-background:new 0 0 128 128;" xml:space="preserve">
<style type="text/css">
	.svg-weather{fill:#000000;}
</style>
<path id="Wind_5_" class="svg-weather" d="M36.9,90h19.2c6.6,0,12,5.4,12,12s-5.4,12-12,12h-4c-2.2,0-4-1.8-4-4s1.8-4,4-4h4c2.2,0,4-1.8,4-4
	c0-2.2-1.8-4-4-4H36.9c-2.2,0-4-1.8-4-4S34.7,90,36.9,90z"/>
<path id="Wind_4_" class="svg-weather" d="M41.9,66h34c2.2,0,4-1.8,4-4s-1.8-4-4-4h-34c-2.2,0-4,1.8-4,4S39.7,66,41.9,66z"/>
<path id="Cloud_21_" class="svg-weather" d="M113.1,58h-4c-2.2,0-4,1.8-4,4s1.8,4,4,4h4c2.2,0,4,1.8,4,4c0,2.2-1.8,4-4,4H92.7
	c2.8-3.6,4.5-8,4.5-12.9c0-8.8-5.6-16.7-13.8-19.6C80.4,25.6,66.5,14,50.1,14C38.1,14,27.1,20.2,21,30.4c-10.7,3.6-18,13.7-18,25.1
	C2.9,70.1,14.8,82,29.4,82h60.6c2.2,0,4,1.8,4,4c0,2.2-1.8,4-4,4h-4c-2.2,0-4,1.8-4,4s1.8,4,4,4h4c6.6,0,12-5.4,12-12
	c0-1.4-0.3-2.7-0.7-4h11.7c6.6,0,12-5.4,12-12S119.7,58,113.1,58z M29.4,74c-10.2,0-18.5-8.3-18.5-18.5c0-8.4,5.7-15.7,13.7-17.9
	l1.7-0.4l0.8-1.5C31.7,27.2,40.5,22,50.1,22c13.3,0,24.4,9.9,25.8,23.1l0.3,2.9l2.8,0.6c5.9,1.3,10.2,6.6,10.2,12.6
	c0,7.1-5.8,12.9-12.9,12.9H29.4z"/>
</svg>
