<svg version="1.1" id="Icon" xmlns="http://www.w3.org/2000/svg" xmlns:xlink="http://www.w3.org/1999/xlink" x="0px" y="0px"
	 width="128px" height="128px" viewBox="0 0 128 128" style="enable-background:new 0 0 128 128;" xml:space="preserve">
<style type="text/css">
	.svg-weather{fill:#000000;}
</style>
<path id="Wind_7_" class="svg-weather" d="M41.9,87.4h34c2.2,0,4-1.8,4-4s-1.8-4-4-4h-34c-2.2,0-4,1.8-4,4S39.7,87.4,41.9,87.4z"/>
<path id="Cloud_23_" class="svg-weather" d="M113.1,79.4h-4c-2.2,0-4,1.8-4,4c0,2.2,1.8,4,4,4h4c2.2,0,4,1.8,4,4c0,2.2-1.8,4-4,4H92.7
	c2.8-3.6,4.5-8,4.5-12.9c0-8.8-5.6-16.7-13.8-19.6c-3.1-15.9-17-27.5-33.4-27.5c-11.9,0-22.9,6.2-29.1,16.4
	c-10.7,3.6-18,13.7-18,25.1c0,14.6,11.9,26.5,26.5,26.5h7.5h19.2c2.2,0,4,1.8,4,4s-1.8,4-4,4h-4c-2.2,0-4,1.8-4,4s1.8,4,4,4h4
	c6.6,0,12-5.4,12-12c0-1.4-0.3-2.7-0.7-4h22.7c2.2,0,4,1.8,4,4s-1.8,4-4,4h-4c-2.2,0-4,1.8-4,4s1.8,4,4,4h4c6.6,0,12-5.4,12-12
	c0-1.4-0.3-2.7-0.7-4h11.7c6.6,0,12-5.4,12-12C125.1,84.8,119.7,79.4,113.1,79.4z M76.3,95.4H56.1H36.9h-7.5
	c-10.2,0-18.5-8.3-18.5-18.5c0-8.4,5.7-15.7,13.7-17.9l1.7-0.4l0.8-1.5c4.6-8.4,13.3-13.7,22.9-13.7c13.3,0,24.4,9.9,25.8,23.1
	l0.3,2.9L79,70c5.9,1.3,10.2,6.6,10.2,12.6C89.2,89.7,83.4,95.4,76.3,95.4z"/>
<path id="Moon_9_" class="svg-weather" d="M118.8,42.9c-1.5-0.8-3.3-0.6-4.5,0.5c-3.6,3.2-8.3,4.9-13.1,4.9c-11,0-20-9-20-20
	c0-4.8,1.7-9.5,4.9-13.1c1.1-1.3,1.3-3.1,0.5-4.5c-0.8-1.5-2.4-2.3-4.1-2.1c-13.1,1.8-23.7,11.1-27.6,23.1c2.7,0.3,5.3,1,7.8,1.9
	c2.1-6,6.4-11,11.9-14.1c-0.9,2.8-1.4,5.7-1.4,8.7c0,15.4,12.6,28,28,28c3,0,5.9-0.5,8.7-1.4c-3.1,5.6-8.3,9.9-14.4,12
	c1.7,2.1,3.1,4.5,4,7c11.1-4.4,19.6-14.5,21.3-27C121.1,45.3,120.3,43.7,118.8,42.9z"/>
</svg>
