<svg version="1.1" id="Icon" xmlns="http://www.w3.org/2000/svg" xmlns:xlink="http://www.w3.org/1999/xlink" x="0px" y="0px"
	 width="128px" height="128px" viewBox="0 0 128 128" style="enable-background:new 0 0 128 128;" xml:space="preserve">
<style type="text/css">
	.svg-weather{fill:#000000;}
</style>
<g id="Thunder">
	<path class="svg-weather" d="M72.5,85h-5l3.8-9.2c0.3-0.6,0.2-1.3-0.2-1.9c-0.4-0.6-1-0.9-1.7-0.9h-7c-0.8,0-1.6,0.5-1.9,1.3l-7,18
		c-0.2,0.6-0.2,1.3,0.2,1.9c0.4,0.5,1,0.9,1.7,0.9h4.1l-5.9,13.2c-0.4,0.9-0.1,2,0.8,2.5c0.3,0.2,0.7,0.3,1,0.3
		c0.6,0,1.2-0.3,1.6-0.8L74,88.3c0.3-0.4,0.5-0.8,0.5-1.3C74.5,85.9,73.6,85,72.5,85z"/>
</g>
<path id="Cloud_12_" class="svg-weather" d="M97.4,44.5C94.3,28.6,80.4,17,64,17c-11.9,0-22.9,6.2-29.1,16.4c-10.7,3.6-18,13.7-18,25.1
	C16.9,73.1,28.8,85,43.4,85H47c2.2,0,4-1.8,4-4c0-2.2-1.8-4-4-4h-3.6c-10.2,0-18.5-8.3-18.5-18.5c0-8.4,5.7-15.7,13.7-17.9l1.7-0.4
	l0.8-1.5C45.7,30.2,54.4,25,64,25c13.3,0,24.4,9.9,25.8,23.1l0.3,2.9l2.8,0.6c5.9,1.3,10.2,6.6,10.2,12.6c0,7.1-5.8,12.9-12.9,12.9
	H83c-2.2,0-4,1.8-4,4c0,2.2,1.8,4,4,4h7.3c11.5,0,20.9-9.4,20.9-20.9C111.1,55.3,105.5,47.5,97.4,44.5z"/>
</svg>
