<svg version="1.1" id="Icon" xmlns="http://www.w3.org/2000/svg" xmlns:xlink="http://www.w3.org/1999/xlink" x="0px" y="0px"
	 width="128px" height="128px" viewBox="0 0 128 128" style="enable-background:new 0 0 128 128;" xml:space="preserve">
<style type="text/css">
	.svg-weather{fill:#000000;}
</style>
<path id="Needle_1_" class="svg-weather" d="M64,38.5C64,38.5,64,38.5,64,38.5c-1.6,0-3,1-3.7,2.4l-16,37c-0.6,1.4-0.4,3,0.6,4.2
	c0.8,0.9,1.9,1.4,3,1.4c0.3,0,0.6,0,1-0.1l15-3.8l15.1,3.8c0.3,0.1,0.7,0.1,1,0.1c2.2,0,4-1.8,4-4c0-0.7-0.2-1.4-0.5-1.9L67.7,40.9
	C67,39.4,65.6,38.5,64,38.5z M68,64c0,2.2-1.8,4-4,4c-2.2,0-4-1.8-4-4c0-2.2,1.8-4,4-4C66.2,60,68,61.8,68,64z"/>
<path id="Compass_2_" class="svg-weather" d="M114,63.7C113.9,51,109,38.3,99.4,28.6C89.7,19,77,14.1,64.3,14c-0.1,0-0.2,0-0.3,0
	s-0.2,0-0.3,0C51,14.1,38.3,19,28.6,28.6C19,38.3,14.1,51,14,63.7c0,0.1,0,0.2,0,0.3s0,0.2,0,0.3C14.1,77,19,89.7,28.6,99.4
	C38.3,109,51,113.9,63.7,114c0.1,0,0.2,0,0.3,0s0.2,0,0.3,0c12.7-0.1,25.4-4.9,35.1-14.6C109,89.7,113.9,77,114,64.3
	c0-0.1,0-0.2,0-0.3S114,63.8,114,63.7z M102,60c-2.2,0-4,1.8-4,4s1.8,4,4,4h3.8c-0.8,8.1-3.9,16.1-9.4,22.7L93.7,88
	c-1.6-1.6-4.1-1.6-5.7,0c-1.6,1.6-1.6,4.1,0,5.7l2.7,2.7c-6.6,5.5-14.6,8.6-22.7,9.4V102c0-2.2-1.8-4-4-4s-4,1.8-4,4v3.8
	c-8.1-0.8-16.1-3.9-22.7-9.4l2.7-2.7c1.6-1.6,1.6-4.1,0-5.7c-1.6-1.6-4.1-1.6-5.7,0l-2.7,2.7C26.1,84.1,23,76.1,22.2,68H26
	c2.2,0,4-1.8,4-4c0-2.2-1.8-4-4-4h-3.8c0.8-8.1,3.9-16.1,9.4-22.7l2.7,2.7c1.6,1.6,4.1,1.6,5.7,0s1.6-4.1,0-5.7l-2.7-2.7
	c6.6-5.5,14.6-8.6,22.7-9.4V26c0,2.2,1.8,4,4,4c2.2,0,4-1.8,4-4v-3.8c8.1,0.8,16.1,3.9,22.7,9.4L88,34.3c-1.6,1.6-1.6,4.1,0,5.7
	c1.6,1.6,4.1,1.6,5.7,0l2.7-2.7c5.5,6.6,8.6,14.6,9.4,22.7H102z"/>
</svg>
