<svg version="1.1" id="Icon" xmlns="http://www.w3.org/2000/svg" xmlns:xlink="http://www.w3.org/1999/xlink" x="0px" y="0px"
	 width="128px" height="128px" viewBox="0 0 128 128" style="enable-background:new 0 0 128 128;" xml:space="preserve">
<style type="text/css">
	.svg-weather{fill:#000000;}
</style>
<g id="Rain_2_">
	<g id="Rain_10_">
		<path class="svg-weather" d="M40.8,124.7c-2.1-0.6-3.4-2.8-2.8-4.9l7.2-27c0.6-2.1,2.8-3.4,4.9-2.8c2.1,0.6,3.4,2.8,2.8,4.9l-7.2,27
			C45.2,124,43,125.3,40.8,124.7z"/>
	</g>
	<g id="Rain_9_">
		<path class="svg-weather" d="M53.8,120.7c-2.1-0.6-3.4-2.8-2.8-4.9l7.2-27c0.6-2.1,2.8-3.4,4.9-2.8c2.1,0.6,3.4,2.8,2.8,4.9l-7.2,27
			C58.2,120,56,121.3,53.8,120.7z"/>
	</g>
	<g id="Rain_7_">
		<path class="svg-weather" d="M28.8,120.7c-2.1-0.6-3.4-2.8-2.8-4.9l7.2-27c0.6-2.1,2.8-3.4,4.9-2.8c2.1,0.6,3.4,2.8,2.8,4.9l-7.2,27
			C33.2,120,31,121.3,28.8,120.7z"/>
	</g>
</g>
<path id="Cloud_9_" class="svg-weather" d="M80.5,64.7c-3.1-15.9-17-27.5-33.4-27.5c-11.9,0-22.9,6.2-29.1,16.4C7.3,57.1,0,67.2,0,78.7
	c0,12.7,9,23.4,21.1,25.9c0,0,0,0,0.1,0c0.2,0,0.5,0.1,0.8,0.1c2.2,0,4-1.8,4-4c0-1.9-1.3-3.5-3.1-3.9c0,0,0,0-0.1,0
	C14.3,95,8,87.6,8,78.7c0-8.4,5.7-15.7,13.7-17.9l1.7-0.4l0.8-1.5c4.6-8.4,13.3-13.7,22.9-13.7c13.3,0,24.4,9.9,25.8,23.1l0.3,2.9
	l2.8,0.6C82,73,86.3,78.3,86.3,84.3c0,7.1-5.8,12.9-12.9,12.9h-1.7c-2.2,0-4,1.8-4,4s1.8,4,4,4h1.7c11.5,0,20.9-9.4,20.9-20.9
	C94.3,75.5,88.6,67.6,80.5,64.7z"/>
<g id="Sun_3_">
	<path id="Shine_30_" class="svg-weather" d="M76.1,23.2c-2.2,0-4-1.8-4-4v-12c0-2.2,1.8-4,4-4s4,1.8,4,4v12C80.1,21.4,78.3,23.2,76.1,23.2z
		"/>
	<path id="Shine_29_" class="svg-weather" d="M124,59.2h-12c-2.2,0-4-1.8-4-4c0-2.2,1.8-4,4-4h12c2.2,0,4,1.8,4,4
		C128,57.4,126.2,59.2,124,59.2z"/>
	<path id="Shine_28_" class="svg-weather" d="M101.5,33.7c-1,0-2-0.4-2.8-1.2c-1.6-1.6-1.6-4.1,0-5.7l8.5-8.5c1.6-1.6,4.1-1.6,5.7,0
		c1.6,1.6,1.6,4.1,0,5.7l-8.5,8.5C103.6,33.3,102.5,33.7,101.5,33.7z"/>
	<path id="Shine_27_" class="svg-weather" d="M50.6,33.7c-1,0-2-0.4-2.8-1.2l-8.5-8.5c-1.6-1.6-1.6-4.1,0-5.7c1.6-1.6,4.1-1.6,5.7,0l8.5,8.5
		c1.6,1.6,1.6,4.1,0,5.7C52.7,33.3,51.6,33.7,50.6,33.7z"/>
	<path id="Shine_26_" class="svg-weather" d="M110,93.1c-1,0-2-0.4-2.8-1.2l-8.5-8.5c-1.6-1.6-1.6-4.1,0-5.7c1.6-1.6,4.1-1.6,5.7,0l8.5,8.5
		c1.6,1.6,1.6,4.1,0,5.7C112.1,92.7,111,93.1,110,93.1z"/>
	<path id="Semi_Circle_2_" class="svg-weather" d="M76.1,39.2c8.8,0,16,7.2,16,16c0,3.6-1.2,7-3.3,9.7c2.1,1.7,4,3.7,5.4,6
		c3.6-4.2,5.9-9.7,5.9-15.7c0-13.2-10.8-24-24-24c-5.4,0-10.5,1.8-14.5,4.9c2.8,1.2,5.5,2.7,8,4.5C71.6,39.7,73.7,39.2,76.1,39.2z"
		/>
</g>
</svg>
