<svg version="1.1" id="Icon" xmlns="http://www.w3.org/2000/svg" xmlns:xlink="http://www.w3.org/1999/xlink" x="0px" y="0px"
	 width="128px" height="128px" viewBox="0 0 128 128" style="enable-background:new 0 0 128 128;" xml:space="preserve">
<style type="text/css">
	.svg-weather{fill:#000000;}
</style>
<g id="Thunder_3_">
	<path class="svg-weather" d="M60.6,98.4h-5l3.8-9.2c0.3-0.6,0.2-1.3-0.2-1.9c-0.4-0.6-1-0.9-1.7-0.9h-7c-0.8,0-1.6,0.5-1.9,1.3l-7,18
		c-0.2,0.6-0.2,1.3,0.2,1.9c0.4,0.5,1,0.9,1.7,0.9h4.1l-5.9,13.2c-0.4,0.9-0.1,2,0.8,2.5c0.3,0.2,0.7,0.3,1,0.3
		c0.6,0,1.2-0.3,1.6-0.8l16.9-21.9c0.3-0.4,0.5-0.8,0.5-1.3C62.6,99.3,61.7,98.4,60.6,98.4z"/>
</g>
<path id="Cloud_14_" class="svg-weather" d="M85.5,57.9c-3.1-15.9-17-27.5-33.4-27.5c-11.9,0-22.9,6.2-29.1,16.4C12.3,50.4,5,60.5,5,71.9
	c0,14.6,11.9,26.5,26.5,26.5h3.6c2.2,0,4-1.8,4-4c0-2.2-1.8-4-4-4h-3.6C21.3,90.4,13,82.1,13,71.9c0-8.4,5.7-15.7,13.7-17.9l1.7-0.4
	l0.8-1.5c4.6-8.4,13.3-13.7,22.9-13.7c13.3,0,24.4,9.9,25.8,23.1l0.3,2.9l2.8,0.6c5.9,1.3,10.2,6.6,10.2,12.6
	c0,7.1-5.8,12.9-12.9,12.9h-7.3c-2.2,0-4,1.8-4,4c0,2.2,1.8,4,4,4h7.3c11.5,0,20.9-9.4,20.9-20.9C99.3,68.7,93.6,60.9,85.5,57.9z"/>
<path id="Moon_5_" class="svg-weather" d="M120.9,37.9c-1.5-0.8-3.3-0.6-4.5,0.5c-3.6,3.2-8.3,4.9-13.1,4.9c-11,0-20-9-20-20
	c0-4.8,1.7-9.5,4.9-13.1c1.1-1.3,1.3-3.1,0.5-4.5c-0.8-1.5-2.4-2.3-4.1-2.1C71.5,5.4,60.9,14.7,57,26.7c2.7,0.3,5.3,1,7.8,1.9
	c2.1-6,6.4-11,11.9-14.1c-0.9,2.8-1.4,5.7-1.4,8.7c0,15.4,12.6,28,28,28c3,0,5.9-0.5,8.7-1.4c-3.1,5.6-8.3,9.9-14.4,12
	c1.7,2.1,3.1,4.5,4,7c11.1-4.4,19.6-14.5,21.3-27C123.2,40.3,122.4,38.7,120.9,37.9z"/>
</svg>
