<svg version="1.1" id="Icon" xmlns="http://www.w3.org/2000/svg" xmlns:xlink="http://www.w3.org/1999/xlink" x="0px" y="0px"
	 width="128px" height="128px" viewBox="0 0 128 128" style="enable-background:new 0 0 128 128;" xml:space="preserve">
<style type="text/css">
	.svg-weather{fill:#000000;}
</style>
<path id="Needle_1_" class="svg-weather" d="M89.5,64C89.5,64,89.5,64,89.5,64c0-1.6-1-3-2.4-3.7l-37-16c-1.4-0.6-3-0.4-4.2,0.6
	c-0.9,0.8-1.4,1.9-1.4,3c0,0.3,0,0.6,0.1,1l3.8,15l-3.8,15.1c-0.1,0.3-0.1,0.7-0.1,1c0,2.2,1.8,4,4,4c0.7,0,1.4-0.2,1.9-0.5
	l36.7-15.9C88.6,67,89.5,65.6,89.5,64z M64,68c-2.2,0-4-1.8-4-4c0-2.2,1.8-4,4-4c2.2,0,4,1.8,4,4C68,66.2,66.2,68,64,68z"/>
<path id="Compass_2_" class="svg-weather" d="M64.3,114c12.7-0.1,25.4-4.9,35.1-14.6C109,89.7,113.9,77,114,64.3c0-0.1,0-0.2,0-0.3
	s0-0.2,0-0.3C113.9,51,109,38.3,99.4,28.6C89.7,19,77,14.1,64.3,14c-0.1,0-0.2,0-0.3,0s-0.2,0-0.3,0C51,14.1,38.3,19,28.6,28.6
	C19,38.3,14.1,51,14,63.7c0,0.1,0,0.2,0,0.3s0,0.2,0,0.3C14.1,77,19,89.7,28.6,99.4C38.3,109,51,113.9,63.7,114c0.1,0,0.2,0,0.3,0
	S64.2,114,64.3,114z M68,102c0-2.2-1.8-4-4-4s-4,1.8-4,4v3.8c-8.1-0.8-16.1-3.9-22.7-9.4l2.7-2.7c1.6-1.6,1.6-4.1,0-5.7
	c-1.6-1.6-4.1-1.6-5.7,0l-2.7,2.7C26.1,84.1,23,76.1,22.2,68H26c2.2,0,4-1.8,4-4s-1.8-4-4-4h-3.8c0.8-8.1,3.9-16.1,9.4-22.7l2.7,2.7
	c1.6,1.6,4.1,1.6,5.7,0s1.6-4.1,0-5.7l-2.7-2.7c6.6-5.5,14.6-8.6,22.7-9.4V26c0,2.2,1.8,4,4,4c2.2,0,4-1.8,4-4v-3.8
	c8.1,0.8,16.1,3.9,22.7,9.4L88,34.3c-1.6,1.6-1.6,4.1,0,5.7c1.6,1.6,4.1,1.6,5.7,0l2.7-2.7c5.5,6.6,8.6,14.6,9.4,22.7H102
	c-2.2,0-4,1.8-4,4c0,2.2,1.8,4,4,4h3.8c-0.8,8.1-3.9,16.1-9.4,22.7L93.7,88c-1.6-1.6-4.1-1.6-5.7,0c-1.6,1.6-1.6,4.1,0,5.7l2.7,2.7
	c-6.6,5.5-14.6,8.6-22.7,9.4V102z"/>
</svg>
