<svg version="1.1" id="Icon" xmlns="http://www.w3.org/2000/svg" xmlns:xlink="http://www.w3.org/1999/xlink" x="0px" y="0px"
	 width="128px" height="128px" viewBox="0 0 128 128" style="enable-background:new 0 0 128 128;" xml:space="preserve">
<style type="text/css">
	.svg-weather{fill:#000;}
</style>
<path id="Cloud_11_" class="svg-weather" d="M97.4,57.5C94.3,41.6,80.4,30,64,30c-11.9,0-22.9,6.2-29.1,16.4c-10.7,3.6-18,13.7-18,25.1
	C16.9,86.1,28.8,98,43.4,98h46.9c11.5,0,20.9-9.4,20.9-20.9C111.1,68.3,105.5,60.5,97.4,57.5z M90.3,90H43.4
	c-10.2,0-18.5-8.3-18.5-18.5c0-8.4,5.7-15.7,13.7-17.9l1.7-0.4l0.8-1.5C45.7,43.2,54.4,38,64,38c13.3,0,24.4,9.9,25.8,23.1l0.3,2.9
	l2.8,0.6c5.9,1.3,10.2,6.6,10.2,12.6C103.1,84.2,97.3,90,90.3,90z"/>
</svg>
