<svg version="1.1" id="Icon" xmlns="http://www.w3.org/2000/svg" xmlns:xlink="http://www.w3.org/1999/xlink" x="0px" y="0px"
	 width="128px" height="128px" viewBox="0 0 128 128" style="enable-background:new 0 0 128 128;" xml:space="preserve">
<style type="text/css">
	.svg-weather{fill:#000000;}
</style>
<g id="Fog_10_">
	<g id="Fog_17_">
		<path id="Fog_19_" class="svg-weather" d="M90,123H72c-2.2,0-4-1.8-4-4s1.8-4,4-4h18c2.2,0,4,1.8,4,4S92.2,123,90,123z"/>
		<path id="Fog_18_" class="svg-weather" d="M60,123H8c-2.2,0-4-1.8-4-4s1.8-4,4-4h52c2.2,0,4,1.8,4,4S62.2,123,60,123z"/>
	</g>
	<g id="Fog_12_">
		<path id="Fog_16_" class="svg-weather" d="M39,91h34c2.2,0,4-1.8,4-4s-1.8-4-4-4H39c-2.2,0-4,1.8-4,4S36.8,91,39,91z"/>
	</g>
</g>
<path id="Cloud_17_" class="svg-weather" d="M107.1,99H89.8c2.8-3.6,4.5-8,4.5-12.9c0-8.8-5.6-16.7-13.8-19.6C77.5,50.6,63.6,39,47.1,39
	c-11.9,0-22.9,6.2-29.1,16.4C7.4,59,0,69.1,0,80.5C0,95.1,11.9,107,26.5,107h46.9c0.2,0,0.4,0,0.6,0v0h33.2c2.2,0,4-1.8,4-4
	S109.4,99,107.1,99z M26.5,99C16.3,99,8,90.7,8,80.5c0-8.4,5.7-15.7,13.7-17.9l1.7-0.4l0.8-1.5C28.8,52.2,37.6,47,47.1,47
	c13.3,0,24.4,9.9,25.8,23.1l0.3,2.9l2.8,0.6c5.9,1.3,10.2,6.6,10.2,12.6c0,7.1-5.8,12.9-12.9,12.9H26.5z"/>
<g id="Sun_8_">
	<path id="Shine_55_" class="svg-weather" d="M76,25c-2.2,0-4-1.8-4-4V9c0-2.2,1.8-4,4-4s4,1.8,4,4v12C80,23.2,78.3,25,76,25z"/>
	<path id="Shine_54_" class="svg-weather" d="M124,61h-12c-2.2,0-4-1.8-4-4s1.8-4,4-4h12c2.2,0,4,1.8,4,4S126.2,61,124,61z"/>
	<path id="Shine_53_" class="svg-weather" d="M101.5,35.5c-1,0-2-0.4-2.8-1.2c-1.6-1.6-1.6-4.1,0-5.7l8.5-8.5c1.6-1.6,4.1-1.6,5.7,0
		c1.6,1.6,1.6,4.1,0,5.7l-8.5,8.5C103.5,35.2,102.5,35.5,101.5,35.5z"/>
	<path id="Shine_52_" class="svg-weather" d="M50.6,35.5c-1,0-2-0.4-2.8-1.2l-8.5-8.5c-1.6-1.6-1.6-4.1,0-5.7c1.6-1.6,4.1-1.6,5.7,0l8.5,8.5
		c1.6,1.6,1.6,4.1,0,5.7C52.6,35.2,51.6,35.5,50.6,35.5z"/>
	<path id="Semi_Circle_7_" class="svg-weather" d="M76,41c8.8,0,16,7.2,16,16c0,3.6-1.2,7-3.3,9.7c2.1,1.7,4,3.7,5.4,6
		C97.8,68.5,100,63,100,57c0-13.2-10.8-24-24-24c-5.4,0-10.5,1.8-14.5,4.9c2.8,1.2,5.5,2.7,8,4.5C71.5,41.5,73.7,41,76,41z"/>
</g>
</svg>
