<svg version="1.1" id="Icon" xmlns="http://www.w3.org/2000/svg" xmlns:xlink="http://www.w3.org/1999/xlink" x="0px" y="0px"
	 width="128px" height="128px" viewBox="0 0 128 128" style="enable-background:new 0 0 128 128;" xml:space="preserve">
<style type="text/css">
	.svg-weather{fill:#000000;}
</style>
<g id="Snow_2_">
	<g id="Snow">
		<path class="svg-weather" d="M63,83.1h-3.1l1.5-2.7c1.1-1.9,0.4-4.4-1.5-5.5s-4.4-0.4-5.5,1.5L53,79.1l-1.5-2.7c-1.1-1.9-3.6-2.6-5.5-1.5
			s-2.6,3.6-1.5,5.5l1.5,2.7H43c-2.2,0-4,1.8-4,4s1.8,4,4,4h3.1l-1.5,2.7c-1.1,1.9-0.4,4.4,1.5,5.5s4.4,0.4,5.5-1.5l1.5-2.7l1.5,2.7
			c1.1,1.9,3.6,2.6,5.5,1.5s2.6-3.6,1.5-5.5l-1.5-2.7H63c2.2,0,4-1.8,4-4S65.2,83.1,63,83.1z"/>
	</g>
	<g id="Snow_1_">
		<path class="svg-weather" d="M84.1,93h-2.2l1.1-1.9c0.8-1.4,0.3-3.1-1-3.9c-1.4-0.8-3.1-0.3-3.9,1L77,90.2l-1.1-1.9
			c-0.8-1.4-2.5-1.8-3.9-1c-1.4,0.8-1.8,2.5-1,3.9l1.1,1.9h-2.2c-1.6,0-2.9,1.3-2.9,2.9c0,1.6,1.3,2.9,2.9,2.9h2.2l-1.1,1.9
			c-0.8,1.4-0.3,3.1,1,3.9s3.1,0.3,3.9-1l1.1-1.9l1.1,1.9c0.8,1.4,2.5,1.8,3.9,1s1.8-2.5,1-3.9l-1.1-1.9h2.2c1.6,0,2.9-1.3,2.9-2.9
			C87,94.3,85.7,93,84.1,93z"/>
	</g>
</g>
<path id="Cloud_1_" class="svg-weather" d="M97.4,50.6c-3.1-15.9-17-27.5-33.4-27.5c-11.9,0-22.9,6.2-29.1,16.4c-10.7,3.6-18,13.7-18,25.1
	c0,9.1,4.6,17.1,11.6,21.8c0.1,0.1,0.2,0.2,0.4,0.2c0.6,0.3,1.3,0.6,2,0.6c0.8,0,1.6-0.2,2.2-0.7c1.1-0.7,1.8-1.9,1.8-3.3
	c0-2.2-1.8-3.4-1.8-3.4c-4.9-3.3-8.2-8.9-8.2-15.3c0-8.4,5.7-15.7,13.7-17.9l1.7-0.4l0.8-1.5c4.6-8.4,13.3-13.7,22.9-13.7
	c13.3,0,24.4,9.9,25.8,23.1l0.3,2.9l2.8,0.6c5.9,1.3,10.2,6.6,10.2,12.6c0,6.5-4.8,11.9-11.1,12.7c-2.5,0.3-4,1.8-4,4s1.8,4.2,4,4
	c10.7-0.9,19.1-9.9,19.1-20.8C111.1,61.4,105.5,53.5,97.4,50.6z"/>
</svg>
