<svg version="1.1" id="Icon" xmlns="http://www.w3.org/2000/svg" xmlns:xlink="http://www.w3.org/1999/xlink" x="0px" y="0px"
	 width="128px" height="128px" viewBox="0 0 128 128" style="enable-background:new 0 0 128 128;" xml:space="preserve">
<style type="text/css">
	.svg-weather{fill:#000000;}
</style>
<g id="Cloud__x2B__Snow_1_">
	<g id="Snow_8_">
		<g id="Snow_12_">
			<path class="svg-weather" d="M46.1,100.1h-3.1l1.5-2.7c1.1-1.9,0.4-4.4-1.5-5.5s-4.4-0.4-5.5,1.5l-1.5,2.7l-1.5-2.7
				c-1.1-1.9-3.6-2.6-5.5-1.5s-2.6,3.6-1.5,5.5l1.5,2.7h-3.1c-2.2,0-4,1.8-4,4s1.8,4,4,4h3.1l-1.5,2.7c-1.1,1.9-0.4,4.4,1.5,5.5
				s4.4,0.4,5.5-1.5l1.5-2.7l1.5,2.7c1.1,1.9,3.6,2.6,5.5,1.5s2.6-3.6,1.5-5.5l-1.5-2.7h3.1c2.2,0,4-1.8,4-4S48.3,100.1,46.1,100.1z
				"/>
		</g>
		<g id="Snow_11_">
			<path class="svg-weather" d="M67.3,110h-2.2l1.1-1.9c0.8-1.4,0.3-3.1-1-3.9c-1.4-0.8-3.1-0.3-3.9,1l-1.1,1.9l-1.1-1.9
				c-0.8-1.4-2.5-1.8-3.9-1c-1.4,0.8-1.8,2.5-1,3.9l1.1,1.9H53c-1.6,0-2.9,1.3-2.9,2.9c0,1.6,1.3,2.9,2.9,2.9h2.2l-1.1,1.9
				c-0.8,1.4-0.3,3.1,1,3.9c1.4,0.8,3.1,0.3,3.9-1l1.1-1.9l1.1,1.9c0.8,1.4,2.5,1.8,3.9,1c1.4-0.8,1.8-2.5,1-3.9l-1.1-1.9h2.2
				c1.6,0,2.9-1.3,2.9-2.9C70.1,111.3,68.8,110,67.3,110z"/>
		</g>
	</g>
	<path id="Cloud_18_" class="svg-weather" d="M80.5,67.6c-3.1-15.9-17-27.5-33.4-27.5c-11.9,0-22.9,6.2-29.1,16.4C7.3,60,0,70.1,0,81.6
		c0,9.1,4.6,17.1,11.6,21.8c0.1,0.1,0.2,0.2,0.4,0.2c0.6,0.3,1.3,0.6,2,0.6c0.8,0,1.6-0.2,2.2-0.7c1.1-0.7,1.8-1.9,1.8-3.3
		c0-2.2-1.8-3.4-1.8-3.4C11.2,93.5,8,87.9,8,81.6c0-8.4,5.7-15.7,13.7-17.9l1.7-0.4l0.8-1.5c4.6-8.4,13.3-13.7,22.9-13.7
		c13.3,0,24.4,9.9,25.8,23.1l0.3,2.9l2.8,0.6c5.9,1.3,10.2,6.6,10.2,12.6c0,6.5-4.8,11.9-11.1,12.7c-2.5,0.3-4,1.8-4,4s1.8,4.2,4,4
		c10.7-0.9,19.1-9.9,19.1-20.8C94.3,78.4,88.6,70.5,80.5,67.6z"/>
</g>
<g id="Sun_4_">
	<path id="Shine_35_" class="svg-weather" d="M76.1,26.1c-2.2,0-4-1.8-4-4v-12c0-2.2,1.8-4,4-4s4,1.8,4,4v12C80.1,24.3,78.3,26.1,76.1,26.1z
		"/>
	<path id="Shine_34_" class="svg-weather" d="M124,62.1h-12c-2.2,0-4-1.8-4-4c0-2.2,1.8-4,4-4h12c2.2,0,4,1.8,4,4
		C128,60.3,126.2,62.1,124,62.1z"/>
	<path id="Shine_33_" class="svg-weather" d="M101.5,36.6c-1,0-2-0.4-2.8-1.2c-1.6-1.6-1.6-4.1,0-5.7l8.5-8.5c1.6-1.6,4.1-1.6,5.7,0
		c1.6,1.6,1.6,4.1,0,5.7l-8.5,8.5C103.6,36.2,102.5,36.6,101.5,36.6z"/>
	<path id="Shine_32_" class="svg-weather" d="M50.6,36.6c-1,0-2-0.4-2.8-1.2l-8.5-8.5c-1.6-1.6-1.6-4.1,0-5.7c1.6-1.6,4.1-1.6,5.7,0l8.5,8.5
		c1.6,1.6,1.6,4.1,0,5.7C52.7,36.2,51.6,36.6,50.6,36.6z"/>
	<path id="Shine_31_" class="svg-weather" d="M110,96c-1,0-2-0.4-2.8-1.2l-8.5-8.5c-1.6-1.6-1.6-4.1,0-5.7c1.6-1.6,4.1-1.6,5.7,0l8.5,8.5
		c1.6,1.6,1.6,4.1,0,5.7C112.1,95.6,111,96,110,96z"/>
	<path id="Semi_Circle_3_" class="svg-weather" d="M76.1,42.1c8.8,0,16,7.2,16,16c0,3.6-1.2,7-3.3,9.7c2.1,1.7,4,3.7,5.4,6
		c3.6-4.2,5.9-9.7,5.9-15.7c0-13.2-10.8-24-24-24c-5.4,0-10.5,1.8-14.5,4.9c2.8,1.2,5.5,2.7,8,4.5C71.6,42.6,73.7,42.1,76.1,42.1z"
		/>
</g>
</svg>
