<svg version="1.1" id="Icon" xmlns="http://www.w3.org/2000/svg" xmlns:xlink="http://www.w3.org/1999/xlink" x="0px" y="0px"
	 width="128px" height="128px" viewBox="0 0 128 128" style="enable-background:new 0 0 128 128;" xml:space="preserve">
<style type="text/css">
	.svg-weather{fill:#000000;}
</style>
<g id="Drops_5_">
	<path id="Drop_29_" class="svg-weather" d="M46.8,114.5c-2.1-0.6-3.4-2.8-2.8-4.9l2.1-7.7c0.6-2.1,2.8-3.4,4.9-2.8c2.1,0.6,3.4,2.8,2.8,4.9
		l-2.1,7.7C51.2,113.9,49,115.1,46.8,114.5z"/>
	<path id="Drop_28_" class="svg-weather" d="M52,95.2c-2.1-0.6-3.4-2.8-2.8-4.9l2.1-7.7c0.6-2.1,2.8-3.4,4.9-2.8c2.1,0.6,3.4,2.8,2.8,4.9
		l-2.1,7.7C56.3,94.5,54.2,95.8,52,95.2z"/>
	<path id="Drop_27_" class="svg-weather" d="M58.8,114.5c-2.1-0.6-3.4-2.8-2.8-4.9l2.1-7.7c0.6-2.1,2.8-3.4,4.9-2.8c2.1,0.6,3.4,2.8,2.8,4.9
		l-2.1,7.7C63.2,113.9,61,115.1,58.8,114.5z"/>
	<path id="Drop_26_" class="svg-weather" d="M64,95.2c-2.1-0.6-3.4-2.8-2.8-4.9l2.1-7.7c0.6-2.1,2.8-3.4,4.9-2.8c2.1,0.6,3.4,2.8,2.8,4.9
		l-2.1,7.7C68.3,94.5,66.2,95.8,64,95.2z"/>
</g>
<g id="Cloud__x2B__Thunder_4_">
	<path class="svg-weather" d="M85.5,58.5C82.4,42.7,68.5,31,52.1,31C40.2,31,29.2,37.2,23,47.4C12.3,51,5,61.1,5,72.5
		C5,84.7,13.3,95,24.5,98l-2.8,7.1c-0.2,0.6-0.2,1.3,0.2,1.9c0.4,0.5,1,0.9,1.7,0.9h4.1L21.8,121c-0.4,0.9-0.1,2,0.8,2.5
		c0.3,0.2,0.7,0.3,1,0.3c0.6,0,1.2-0.3,1.6-0.8l16.9-21.9c0.3-0.4,0.5-0.8,0.5-1.3c0-1.1-0.9-2-2-2h-5l3.8-9.2
		c0.3-0.6,0.2-1.3-0.2-1.9c-0.4-0.6-1-0.9-1.7-0.9h-7c-0.8,0-1.6,0.5-1.9,1.3l-1.3,3.4c-8.2-1.9-14.4-9.2-14.4-18
		c0-8.4,5.7-15.7,13.7-17.9l1.7-0.4l0.8-1.5C33.8,44.2,42.6,39,52.1,39c13.3,0,24.4,9.9,25.8,23.1l0.3,2.9l2.8,0.6
		c5.9,1.3,10.2,6.6,10.2,12.6c0,7.1-5.8,12.9-12.9,12.9h-1.7c-2.2,0-4,1.8-4,4c0,2.2,1.8,4,4,4h1.7c11.5,0,20.9-9.4,20.9-20.9
		C99.3,69.3,93.6,61.5,85.5,58.5z"/>
</g>
<path id="Moon_6_" class="svg-weather" d="M120.9,38.5c-1.5-0.8-3.3-0.6-4.5,0.5c-3.6,3.2-8.3,4.9-13.1,4.9c-11,0-20-9-20-20
	c0-4.8,1.7-9.5,4.9-13.1c1.1-1.3,1.3-3.1,0.5-4.5c-0.8-1.5-2.4-2.3-4.1-2.1C71.5,6,60.9,15.3,57,27.3c2.7,0.3,5.3,1,7.8,1.9
	c2.1-6,6.4-11,11.9-14.1c-0.9,2.8-1.4,5.7-1.4,8.7c0,15.4,12.6,28,28,28c3,0,5.9-0.5,8.7-1.4c-3.1,5.6-8.3,9.9-14.4,12
	c1.7,2.1,3.1,4.5,4,7c11.1-4.4,19.6-14.5,21.3-27C123.2,40.9,122.4,39.3,120.9,38.5z"/>
</svg>
