<svg version="1.1" id="Icon" xmlns="http://www.w3.org/2000/svg" xmlns:xlink="http://www.w3.org/1999/xlink" x="0px" y="0px"
	 width="128px" height="128px" viewBox="0 0 128 128" style="enable-background:new 0 0 128 128;" xml:space="preserve">
<style type="text/css">
	.svg-weather{fill:#000000;}
</style>
<g id="Drops_2_">
	<path id="Drop_17_" class="svg-weather" d="M45.8,121.1c-2.1-0.6-3.4-2.8-2.8-4.9l2.1-7.7c0.6-2.1,2.8-3.4,4.9-2.8c2.1,0.6,3.4,2.8,2.8,4.9
		l-2.1,7.7C50.2,120.4,48,121.7,45.8,121.1z"/>
	<path id="Drop_16_" class="svg-weather" d="M51,101.8c-2.1-0.6-3.4-2.8-2.8-4.9l2.1-7.7c0.6-2.1,2.8-3.4,4.9-2.8c2.1,0.6,3.4,2.8,2.8,4.9
		L55.9,99C55.3,101.1,53.2,102.4,51,101.8z"/>
	<path id="Drop_15_" class="svg-weather" d="M58.8,117.1c-2.1-0.6-3.4-2.8-2.8-4.9l2.1-7.7c0.6-2.1,2.8-3.4,4.9-2.8c2.1,0.6,3.4,2.8,2.8,4.9
		l-2.1,7.7C63.2,116.4,61,117.7,58.8,117.1z"/>
	<path id="Drop_14_" class="svg-weather" d="M64,97.8c-2.1-0.6-3.4-2.8-2.8-4.9l2.1-7.7c0.6-2.1,2.8-3.4,4.9-2.8c2.1,0.6,3.4,2.8,2.8,4.9
		L68.9,95C68.3,97.1,66.2,98.4,64,97.8z"/>
	<path id="Drop_13_" class="svg-weather" d="M33.8,117.1c-2.1-0.6-3.4-2.8-2.8-4.9l2.1-7.7c0.6-2.1,2.8-3.4,4.9-2.8c2.1,0.6,3.4,2.8,2.8,4.9
		l-2.1,7.7C38.2,116.4,36,117.7,33.8,117.1z"/>
	<path id="Drop_12_" class="svg-weather" d="M39,97.8c-2.1-0.6-3.4-2.8-2.8-4.9l2.1-7.7c0.6-2.1,2.8-3.4,4.9-2.8c2.1,0.6,3.4,2.8,2.8,4.9
		L43.9,95C43.3,97.1,41.2,98.4,39,97.8z"/>
</g>
<path id="Cloud_8_" class="svg-weather" d="M85.5,61.1c-3.1-15.9-17-27.5-33.4-27.5C40.2,33.6,29.2,39.8,23,50C12.3,53.6,5,63.7,5,75.1
	c0,12.7,9,23.4,21.1,25.9c0,0,0,0,0.1,0c0.2,0,0.5,0.1,0.8,0.1c2.2,0,4-1.8,4-4c0-1.9-1.3-3.5-3.1-3.9c0,0,0,0-0.1,0
	C19.3,91.4,13,84,13,75.1c0-8.4,5.7-15.7,13.7-17.9l1.7-0.4l0.8-1.5c4.6-8.4,13.3-13.7,22.9-13.7c13.3,0,24.4,9.9,25.8,23.1l0.3,2.9
	l2.8,0.6c5.9,1.3,10.2,6.6,10.2,12.6c0,7.1-5.8,12.9-12.9,12.9h-1.7c-2.2,0-4,1.8-4,4c0,2.2,1.8,4,4,4h1.7
	c11.5,0,20.9-9.4,20.9-20.9C99.3,71.9,93.6,64.1,85.5,61.1z"/>
<path id="Moon_3_" class="svg-weather" d="M120.9,41.1c-1.5-0.8-3.3-0.6-4.5,0.5c-3.6,3.2-8.3,4.9-13.1,4.9c-11,0-20-9-20-20
	c0-4.8,1.7-9.5,4.9-13.1c1.1-1.3,1.3-3.1,0.5-4.5c-0.8-1.5-2.4-2.3-4.1-2.1C71.5,8.6,60.9,17.9,57,29.9c2.7,0.3,5.3,1,7.8,1.9
	c2.1-6,6.4-11,11.9-14.1c-0.9,2.8-1.4,5.7-1.4,8.7c0,15.4,12.6,28,28,28c3,0,5.9-0.5,8.7-1.4c-3.1,5.6-8.3,9.9-14.4,12
	c1.7,2.1,3.1,4.5,4,7c11.1-4.4,19.6-14.5,21.3-27C123.2,43.5,122.4,41.9,120.9,41.1z"/>
</svg>
