<svg version="1.1" id="Icon" xmlns="http://www.w3.org/2000/svg" xmlns:xlink="http://www.w3.org/1999/xlink" x="0px" y="0px"
	 width="128px" height="128px" viewBox="0 0 128 128" style="enable-background:new 0 0 128 128;" xml:space="preserve">
<style type="text/css">
	.svg-weather{fill:#000000;}
</style>
<g id="Drops_8_">
	<path id="Drop_35_" class="svg-weather" d="M58.8,119.1c-2.1-0.6-3.4-2.8-2.8-4.9l2.1-7.7c0.6-2.1,2.8-3.4,4.9-2.8c2.1,0.6,3.4,2.8,2.8,4.9
		l-2.1,7.7C63.2,118.4,61,119.7,58.8,119.1z"/>
	<path id="Drop_34_" class="svg-weather" d="M64,99.8c-2.1-0.6-3.4-2.8-2.8-4.9l2.1-7.7c0.6-2.1,2.8-3.4,4.9-2.8c2.1,0.6,3.4,2.8,2.8,4.9
		L68.9,97C68.3,99.1,66.1,100.4,64,99.8z"/>
</g>
<g id="Snow_20_">
	<g id="Snow_22_">
		<path class="svg-weather" d="M51.1,95.6H48l1.5-2.7c1.1-1.9,0.4-4.4-1.5-5.5c-1.9-1.1-4.4-0.4-5.5,1.5l-1.5,2.7l-1.5-2.7
			c-1.1-1.9-3.6-2.6-5.5-1.5c-1.9,1.1-2.6,3.6-1.5,5.5l1.5,2.7h-3.1c-2.2,0-4,1.8-4,4s1.8,4,4,4h3.1l-1.5,2.7
			c-1.1,1.9-0.4,4.4,1.5,5.5c1.9,1.1,4.4,0.4,5.5-1.5l1.5-2.7l1.5,2.7c1.1,1.9,3.6,2.6,5.5,1.5c1.9-1.1,2.6-3.6,1.5-5.5l-1.5-2.7
			h3.1c2.2,0,4-1.8,4-4S53.3,95.6,51.1,95.6z"/>
	</g>
</g>
<path id="Cloud_25_" class="svg-weather" d="M85.5,63.1c-3.1-15.9-17-27.5-33.4-27.5c0,0,0,0,0,0v0C40.2,35.6,29.2,41.8,23,52
	C12.3,55.6,5,65.7,5,77.1c0,9.1,4.6,17.1,11.6,21.8c0.1,0.1,0.2,0.2,0.4,0.2c0.6,0.3,1.3,0.6,2,0.6c0.8,0,1.6-0.2,2.2-0.7
	c1.1-0.7,1.8-1.9,1.8-3.3c0-2.2-1.8-3.4-1.8-3.4c-4.9-3.3-8.2-8.9-8.2-15.3c0-8.4,5.7-15.7,13.7-17.9l1.7-0.4l0.8-1.5
	c4.6-8.4,13.3-13.6,22.9-13.7l0,0c0,0,0,0,0,0c13.3,0,24.4,9.9,25.8,23.1l0.3,2.9l2.8,0.6c5.9,1.3,10.2,6.6,10.2,12.6
	c0,7.1-5.8,12.9-12.9,12.9h-1.7c-2.2,0-4,1.8-4,4c0,2.2,1.8,4,4,4h1.7c11.5,0,20.9-9.4,20.9-20.9C99.2,73.9,93.6,66.1,85.5,63.1z"/>
<path id="Moon_10_" class="svg-weather" d="M120.9,43.1c-1.5-0.8-3.3-0.6-4.5,0.5c-3.6,3.2-8.3,4.9-13.1,4.9c-11,0-20-9-20-20
	c0-4.8,1.7-9.5,4.9-13.1c1.1-1.3,1.3-3.1,0.5-4.5c-0.8-1.5-2.4-2.3-4.1-2.1C71.5,10.6,61,19.9,57,31.9c2.7,0.3,5.3,1,7.8,1.9
	c2.1-6,6.4-11,11.9-14.1c-0.9,2.8-1.4,5.7-1.4,8.7c0,15.4,12.6,28,28,28c3,0,5.9-0.5,8.7-1.4c-3.1,5.6-8.3,9.9-14.4,12
	c1.7,2.1,3.1,4.5,4,7c11.1-4.4,19.6-14.5,21.3-27C123.2,45.5,122.4,43.9,120.9,43.1z"/>
</svg>
