<svg version="1.1" id="Icon" xmlns="http://www.w3.org/2000/svg" xmlns:xlink="http://www.w3.org/1999/xlink" x="0px" y="0px"
	 width="128px" height="128px" viewBox="0 0 128 128" style="enable-background:new 0 0 128 128;" xml:space="preserve">
<style type="text/css">
	.svg-weather{fill:#000000;}
</style>
<g id="Fog_20_">
	<g id="Fog_23_">
		<path id="Fog_25_" class="svg-weather" d="M95,119.4H77c-2.2,0-4-1.8-4-4s1.8-4,4-4h18c2.2,0,4,1.8,4,4S97.2,119.4,95,119.4z"/>
		<path id="Fog_24_" class="svg-weather" d="M65,119.4H13c-2.2,0-4-1.8-4-4s1.8-4,4-4h52c2.2,0,4,1.8,4,4S67.2,119.4,65,119.4z"/>
	</g>
	<g id="Fog_21_">
		<path id="Fog_22_" class="svg-weather" d="M44,87.4h34c2.2,0,4-1.8,4-4s-1.8-4-4-4H44c-2.2,0-4,1.8-4,4S41.7,87.4,44,87.4z"/>
	</g>
</g>
<path id="Cloud_19_" class="svg-weather" d="M112.1,95.4H94.8c2.8-3.6,4.5-8,4.5-12.9c0-8.8-5.6-16.7-13.8-19.6c-3.1-15.9-17-27.5-33.4-27.5
	c-11.9,0-22.9,6.2-29.1,16.4C12.3,55.4,5,65.5,5,76.9c0,14.6,11.9,26.5,26.5,26.5h46.9c0.2,0,0.4,0,0.6,0v0h33.2c2.2,0,4-1.8,4-4
	C116.1,97.2,114.3,95.4,112.1,95.4z M31.5,95.4C21.3,95.4,13,87.1,13,76.9c0-8.4,5.7-15.7,13.7-17.9l1.7-0.4l0.8-1.5
	c4.6-8.4,13.3-13.7,22.9-13.7c13.3,0,24.4,9.9,25.8,23.1l0.3,2.9l2.8,0.6c5.9,1.3,10.2,6.6,10.2,12.6c0,7.1-5.8,12.9-12.9,12.9H31.5
	z"/>
<path id="Moon_8_" class="svg-weather" d="M120.9,42.9c-1.5-0.8-3.3-0.6-4.5,0.5c-3.6,3.2-8.3,4.9-13.1,4.9c-11,0-20-9-20-20
	c0-4.8,1.7-9.5,4.9-13.1c1.1-1.3,1.3-3.1,0.5-4.5c-0.8-1.5-2.4-2.3-4.1-2.1C71.5,10.4,60.9,19.7,57,31.7c2.7,0.3,5.3,1,7.8,1.9
	c2.1-6,6.4-11,11.9-14.1c-0.9,2.8-1.4,5.7-1.4,8.7c0,15.4,12.6,28,28,28c3,0,5.9-0.5,8.7-1.4c-3.1,5.6-8.3,9.9-14.4,12
	c1.7,2.1,3.1,4.5,4,7c11.1-4.4,19.6-14.5,21.3-27C123.2,45.3,122.4,43.7,120.9,42.9z"/>
</svg>
