<svg version="1.1" id="Icon" xmlns="http://www.w3.org/2000/svg" xmlns:xlink="http://www.w3.org/1999/xlink" x="0px" y="0px"
	 width="128px" height="128px" viewBox="0 0 128 128" style="enable-background:new 0 0 128 128;" xml:space="preserve">
<style type="text/css">
	.svg-weather{fill:#000000;}
</style>
<g id="Cloud__x2B__Snow_2_">
	<g id="Snow_3_">
		<g id="Snow_7_">
			<path class="svg-weather" d="M51.1,96.5h-3.1l1.5-2.7c1.1-1.9,0.4-4.4-1.5-5.5c-1.9-1.1-4.4-0.4-5.5,1.5l-1.5,2.7l-1.5-2.7
				c-1.1-1.9-3.6-2.6-5.5-1.5c-1.9,1.1-2.6,3.6-1.5,5.5l1.5,2.7h-3.1c-2.2,0-4,1.8-4,4s1.8,4,4,4h3.1l-1.5,2.7
				c-1.1,1.9-0.4,4.4,1.5,5.5c1.9,1.1,4.4,0.4,5.5-1.5l1.5-2.7l1.5,2.7c1.1,1.9,3.6,2.6,5.5,1.5c1.9-1.1,2.6-3.6,1.5-5.5l-1.5-2.7
				h3.1c2.2,0,4-1.8,4-4S53.3,96.5,51.1,96.5z"/>
		</g>
		<g id="Snow_6_">
			<path class="svg-weather" d="M72.3,106.5h-2.2l1.1-1.9c0.8-1.4,0.3-3.1-1-3.9c-1.4-0.8-3.1-0.3-3.9,1l-1.1,1.9l-1.1-1.9
				c-0.8-1.4-2.5-1.8-3.9-1c-1.4,0.8-1.8,2.5-1,3.9l1.1,1.9H58c-1.6,0-2.9,1.3-2.9,2.9c0,1.6,1.3,2.9,2.9,2.9h2.2l-1.1,1.9
				c-0.8,1.4-0.3,3.1,1,3.9c1.4,0.8,3.1,0.3,3.9-1l1.1-1.9l1.1,1.9c0.8,1.4,2.5,1.8,3.9,1c1.4-0.8,1.8-2.5,1-3.9l-1.1-1.9h2.2
				c1.6,0,2.9-1.3,2.9-2.9C75.1,107.8,73.8,106.5,72.3,106.5z"/>
		</g>
	</g>
	<path id="Cloud_15_" class="svg-weather" d="M85.5,64c-3.1-15.9-17-27.5-33.4-27.5c-11.9,0-22.9,6.2-29.1,16.4C12.3,56.5,5,66.6,5,78
		c0,9.1,4.6,17.1,11.6,21.8c0.1,0.1,0.2,0.2,0.4,0.2c0.6,0.3,1.3,0.6,2,0.6c0.8,0,1.6-0.2,2.2-0.7c1.1-0.7,1.8-1.9,1.8-3.3
		c0-2.2-1.8-3.4-1.8-3.4C16.2,90,13,84.4,13,78c0-8.4,5.7-15.7,13.7-17.9l1.7-0.4l0.8-1.5c4.6-8.4,13.3-13.7,22.9-13.7
		c13.3,0,24.4,9.9,25.8,23.1l0.3,2.9l2.8,0.6c5.9,1.3,10.2,6.6,10.2,12.6c0,6.5-4.8,11.9-11.1,12.7c-2.5,0.3-4,1.8-4,4s1.8,4.2,4,4
		c10.7-0.9,19.1-9.9,19.1-20.8C99.3,74.8,93.6,67,85.5,64z"/>
</g>
<path id="Moon_4_" class="svg-weather" d="M120.9,43.9c-1.5-0.8-3.3-0.6-4.5,0.5c-3.6,3.2-8.3,4.9-13.1,4.9c-11,0-20-9-20-20
	c0-4.8,1.7-9.5,4.9-13.1c1.1-1.3,1.3-3.1,0.5-4.5c-0.8-1.5-2.4-2.3-4.1-2.1C71.5,11.4,60.9,20.7,57,32.8c2.7,0.3,5.3,1,7.8,1.9
	c2.1-6,6.4-11,11.9-14.1c-0.9,2.8-1.4,5.7-1.4,8.7c0,15.4,12.6,28,28,28c3,0,5.9-0.5,8.7-1.4c-3.1,5.6-8.3,9.9-14.4,12
	c1.7,2.1,3.1,4.5,4,7c11.1-4.4,19.6-14.5,21.3-27C123.2,46.3,122.4,44.7,120.9,43.9z"/>
</svg>
