<svg version="1.1" id="Icon" xmlns="http://www.w3.org/2000/svg" xmlns:xlink="http://www.w3.org/1999/xlink" x="0px" y="0px"
	 width="128px" height="128px" viewBox="0 0 128 128" style="enable-background:new 0 0 128 128;" xml:space="preserve">
<style type="text/css">
	.svg-weather{fill:#000000;}
</style>
<path id="Degree_1_" class="svg-weather" d="M30,14c-6.6,0-12,5.4-12,12s5.4,12,12,12s12-5.4,12-12S36.6,14,30,14z M30,30c-2.2,0-4-1.8-4-4
	s1.8-4,4-4s4,1.8,4,4S32.2,30,30,30z"/>
<path id="Fahrenheit_1_" class="svg-weather" d="M106,14H54c-2.2,0-4,1.8-4,4v92c0,2.2,1.8,4,4,4s4-1.8,4-4V68h36c2.2,0,4-1.8,4-4
	s-1.8-4-4-4H58V22h48c2.2,0,4-1.8,4-4S108.2,14,106,14z"/>
</svg>
