<svg version="1.1" id="Icon" xmlns="http://www.w3.org/2000/svg" xmlns:xlink="http://www.w3.org/1999/xlink" x="0px" y="0px"
	 width="128px" height="128px" viewBox="0 0 128 128" style="enable-background:new 0 0 128 128;" xml:space="preserve">
<style type="text/css">
	.svg-weather{fill:#000000;}
</style>
<path id="Moon" class="svg-weather" d="M64.1,97.9c-18.7,0-34-15.3-34-34c0-16.9,12.6-31.4,29.3-33.7c1.6-0.2,3.3,0.6,4.1,2.1
	c0.8,1.5,0.6,3.3-0.5,4.5c-3.2,3.6-4.9,8.3-4.9,13.1c0,11,9,20,20,20c4.8,0,9.5-1.7,13.1-4.9c1.3-1.1,3.1-1.3,4.5-0.5
	c1.5,0.8,2.3,2.4,2.1,4.1C95.5,85.3,81,97.9,64.1,97.9z M51.5,41.1c-8,4.5-13.4,13.1-13.4,22.7c0,14.3,11.7,26,26,26
	c9.6,0,18.2-5.4,22.7-13.4c-2.8,0.9-5.7,1.4-8.7,1.4c-15.4,0-28-12.6-28-28C50.1,46.9,50.6,43.9,51.5,41.1z"/>
</svg>
