<svg version="1.1" id="Icon" xmlns="http://www.w3.org/2000/svg" xmlns:xlink="http://www.w3.org/1999/xlink" x="0px" y="0px"
	 width="128px" height="128px" viewBox="0 0 128 128" style="enable-background:new 0 0 128 128;" xml:space="preserve">

<path id="Circle_1_" class="svg-weather" d="M64,88c-13.2,0-24-10.8-24-24c0-13.2,10.8-24,24-24c13.2,0,24,10.8,24,24C88,77.2,77.2,88,64,88
	z M64,48c-8.8,0-16,7.2-16,16s7.2,16,16,16s16-7.2,16-16S72.8,48,64,48z"/>
<g id="Shine_Group">
	<path id="Shine_8_" class="svg-weather" d="M64,32c-2.2,0-4-1.8-4-4V16c0-2.2,1.8-4,4-4s4,1.8,4,4v12C68,30.2,66.2,32,64,32z"/>
	<path id="Shine_9_" class="svg-weather" d="M64,116c-2.2,0-4-1.8-4-4v-12c0-2.2,1.8-4,4-4s4,1.8,4,4v12C68,114.2,66.2,116,64,116z"/>
	<path id="Shine_10_" class="svg-weather" d="M28,68H16c-2.2,0-4-1.8-4-4s1.8-4,4-4h12c2.2,0,4,1.8,4,4S30.2,68,28,68z"/>
	<path id="Shine_11_" class="svg-weather" d="M112,68h-12c-2.2,0-4-1.8-4-4s1.8-4,4-4h12c2.2,0,4,1.8,4,4S114.2,68,112,68z"/>
	<path id="Shine_12_" class="svg-weather" d="M89.5,42.5c-1,0-2-0.4-2.8-1.2c-1.6-1.6-1.6-4.1,0-5.7l8.5-8.5c1.6-1.6,4.1-1.6,5.7,0
		c1.6,1.6,1.6,4.1,0,5.7l-8.5,8.5C91.5,42.2,90.5,42.5,89.5,42.5z"/>
	<path id="Shine_13_" class="svg-weather" d="M30.1,101.9c-1,0-2-0.4-2.8-1.2c-1.6-1.6-1.6-4.1,0-5.7l8.5-8.5c1.6-1.6,4.1-1.6,5.7,0
		c1.6,1.6,1.6,4.1,0,5.7l-8.5,8.5C32.1,101.6,31.1,101.9,30.1,101.9z"/>
	<path id="Shine_14_" class="svg-weather" d="M97.9,101.9c-1,0-2-0.4-2.8-1.2l-8.5-8.5c-1.6-1.6-1.6-4.1,0-5.7c1.6-1.6,4.1-1.6,5.7,0
		l8.5,8.5c1.6,1.6,1.6,4.1,0,5.7C100,101.6,99,101.9,97.9,101.9z"/>
	<path id="Shine_15_" class="svg-weather" d="M38.5,42.5c-1,0-2-0.4-2.8-1.2l-8.5-8.5c-1.6-1.6-1.6-4.1,0-5.7c1.6-1.6,4.1-1.6,5.7,0l8.5,8.5
		c1.6,1.6,1.6,4.1,0,5.7C40.6,42.2,39.6,42.5,38.5,42.5z"/>
</g>
</svg>
