<svg version="1.1" id="Icon" xmlns="http://www.w3.org/2000/svg" xmlns:xlink="http://www.w3.org/1999/xlink" x="0px" y="0px"
	 width="128px" height="128px" viewBox="0 0 128 128" style="enable-background:new 0 0 128 128;" xml:space="preserve">
<style type="text/css">
	.svg-weather{fill:#000000;}
</style>
<g id="Shine_65_">
	<path id="Shine_70_" class="svg-weather" d="M64,48c2.2,0,4-1.8,4-4V32c0-2.2-1.8-4-4-4s-4,1.8-4,4v12C60,46.2,61.8,48,64,48z"/>
	<path id="Shine_69_" class="svg-weather" d="M32,80c0-2.2-1.8-4-4-4H16c-2.2,0-4,1.8-4,4s1.8,4,4,4h12C30.2,84,32,82.2,32,80z"/>
	<path id="Shine_68_" class="svg-weather" d="M112,76h-12c-2.2,0-4,1.8-4,4s1.8,4,4,4h12c2.2,0,4-1.8,4-4S114.2,76,112,76z"/>
	<path id="Shine_67_" class="svg-weather" d="M89.5,58.5c1,0,2-0.4,2.8-1.2l8.5-8.5c1.6-1.6,1.6-4.1,0-5.7c-1.6-1.6-4.1-1.6-5.7,0l-8.5,8.5
		c-1.6,1.6-1.6,4.1,0,5.7C87.4,58.2,88.4,58.5,89.5,58.5z"/>
	<path id="Shine_66_" class="svg-weather" d="M35.7,57.4c0.8,0.8,1.8,1.2,2.8,1.2c1,0,2-0.4,2.8-1.2c1.6-1.6,1.6-4.1,0-5.7l-8.5-8.5
		c-1.6-1.6-4.1-1.6-5.7,0c-1.6,1.6-1.6,4.1,0,5.7L35.7,57.4z"/>
</g>
<path id="Arrow_1_" class="svg-weather" d="M96,100H72c-1.1,0-2.1-0.4-2.8-1.2L64,93.7l-5.1,5.1c-0.8,0.8-1.8,1.2-2.8,1.2h-24
	c-2.2,0-4-1.8-4-4s1.8-4,4-4h22.3l6.7-6.8c0.7-0.8,1.8-1.2,2.8-1.2c0,0,0,0,0,0c1.1,0,2.1,0.4,2.8,1.2l6.8,6.8H96c2.2,0,4,1.8,4,4
	S98.2,100,96,100z"/>
<path id="Sun_11_" class="svg-weather" d="M64,56c-13.2,0-24,10.8-24,24c0,1.5,0.2,3.1,0.4,4.5c0,0.2,0.1,0.4,0.1,0.6c0.5,1.6,2,2.8,3.8,2.8
	c2.2,0,4-1.8,4-4c0-0.2,0-0.5-0.1-0.7c0-0.1,0-0.1,0-0.2c-0.2-1-0.3-2-0.3-3.1c0-8.8,7.2-16,16-16s16,7.2,16,16
	c0,1.1-0.1,2.1-0.3,3.1c0,0,0,0.1,0,0.1c0,0.2-0.1,0.5-0.1,0.7c0,0.2,0,0.3,0.1,0.5c0,0.2,0.1,0.4,0.1,0.6c0.5,1.6,2,2.8,3.8,2.8
	c1.8,0,3.3-1.2,3.8-2.8c0.1-0.2,0.1-0.5,0.2-0.8C87.8,83,88,81.5,88,80C88,66.8,77.2,56,64,56z"/>
</svg>
