<svg version="1.1" id="Icon" xmlns="http://www.w3.org/2000/svg" xmlns:xlink="http://www.w3.org/1999/xlink" x="0px" y="0px"
	 width="128px" height="128px" viewBox="0 0 128 128" style="enable-background:new 0 0 128 128;" xml:space="preserve">
<style type="text/css">
	.svg-weather{fill:#000000;}
</style>
<g id="Shine_51_">
	<path id="Shine_64_" class="svg-weather" d="M64,44c2.2,0,4-1.8,4-4V28c0-2.2-1.8-4-4-4s-4,1.8-4,4v12C60,42.2,61.8,44,64,44z"/>
	<path id="Shine_63_" class="svg-weather" d="M32,76c0-2.2-1.8-4-4-4H16c-2.2,0-4,1.8-4,4s1.8,4,4,4h12C30.2,80,32,78.2,32,76z"/>
	<path id="Shine_62_" class="svg-weather" d="M112,72h-12c-2.2,0-4,1.8-4,4s1.8,4,4,4h12c2.2,0,4-1.8,4-4S114.2,72,112,72z"/>
	<path id="Shine_61_" class="svg-weather" d="M89.5,54.5c1,0,2-0.4,2.8-1.2l8.5-8.5c1.6-1.6,1.6-4.1,0-5.7c-1.6-1.6-4.1-1.6-5.7,0l-8.5,8.5
		c-1.6,1.6-1.6,4.1,0,5.7C87.4,54.2,88.4,54.5,89.5,54.5z"/>
	<path id="Shine_60_" class="svg-weather" d="M35.7,53.4c0.8,0.8,1.8,1.2,2.8,1.2c1,0,2-0.4,2.8-1.2c1.6-1.6,1.6-4.1,0-5.7l-8.5-8.5
		c-1.6-1.6-4.1-1.6-5.7,0c-1.6,1.6-1.6,4.1,0,5.7L35.7,53.4z"/>
</g>
<path id="Arrow" class="svg-weather" d="M96,88H72c-1.1,0-2.1,0.4-2.8,1.2L64,94.3l-5.1-5.1c-0.8-0.8-1.8-1.2-2.8-1.2h-24c-2.2,0-4,1.8-4,4
	s1.8,4,4,4h22.3l6.7,6.8c0.7,0.8,1.8,1.2,2.8,1.2c0,0,0,0,0,0c1.1,0,2.1-0.4,2.8-1.2l6.8-6.8H96c2.2,0,4-1.8,4-4S98.2,88,96,88z"/>
<path id="Sun_10_" class="svg-weather" d="M64,52c-13.2,0-24,10.8-24,24c0,1.5,0.2,3.1,0.4,4.5c0,0.2,0.1,0.4,0.1,0.6c0.5,1.6,2,2.8,3.8,2.8
	c2.2,0,4-1.8,4-4c0-0.2,0-0.5-0.1-0.7c0-0.1,0-0.1,0-0.2c-0.2-1-0.3-2-0.3-3.1c0-8.8,7.2-16,16-16s16,7.2,16,16
	c0,1.1-0.1,2.1-0.3,3.1c0,0,0,0.1,0,0.1c0,0.2-0.1,0.5-0.1,0.7c0,0.2,0,0.3,0.1,0.5c0,0.2,0.1,0.4,0.1,0.6c0.5,1.6,2,2.8,3.8,2.8
	c1.8,0,3.3-1.2,3.8-2.8c0.1-0.2,0.1-0.5,0.2-0.8C87.8,79,88,77.5,88,76C88,62.8,77.2,52,64,52z"/>
</svg>
