<svg version="1.1" id="Icon" xmlns="http://www.w3.org/2000/svg" xmlns:xlink="http://www.w3.org/1999/xlink" x="0px" y="0px"
	 width="128px" height="128px" viewBox="0 0 128 128" style="enable-background:new 0 0 128 128;" xml:space="preserve">
<style type="text/css">
	.svg-weather{fill:#000000;}
</style>
<path id="Snow_23_" class="svg-weather" d="M107.6,84.5l-10.2-5.9l3.6-1c1.1-0.3,1.9-1,2.4-1.9c0.5-0.9,0.7-2,0.4-3
	c-0.6-2.1-2.8-3.4-4.9-2.8l-11.4,3l-8.2-4.7l1.3-2.2c0.7-1.2,0.7-2.8,0-4l-1.3-2.2l8.2-4.7l11.4,3c2.1,0.6,4.3-0.7,4.9-2.8
	c0.6-2.1-0.7-4.3-2.8-4.9l-3.6-1l10.2-5.9c1.9-1.1,2.6-3.6,1.5-5.5s-3.6-2.6-5.5-1.5l-10.2,5.9l1-3.6c0.3-1.1,0.1-2.1-0.4-3
	c-0.5-0.9-1.4-1.6-2.4-1.9c-2.1-0.6-4.3,0.7-4.9,2.8l-3,11.4l-8.2,4.7L74,50.6c-0.7-1.2-2-2-3.5-2H68v-9.5l8.3-8.3
	c1.6-1.6,1.6-4.1,0-5.7c-0.8-0.8-1.8-1.2-2.8-1.2c-1,0-2,0.4-2.8,1.2L68,27.8V16c0-2.2-1.8-4-4-4s-4,1.8-4,4v11.8l-2.7-2.7
	c-1.6-1.6-4.1-1.6-5.7,0c-1.6,1.6-1.6,4.1,0,5.7l8.3,8.3v9.5h-2.6c-1.4,0-2.7,0.8-3.5,2l-1.3,2.2l-8.2-4.7l-3-11.4
	c-0.6-2.1-2.8-3.4-4.9-2.8c-1.1,0.3-1.9,1-2.4,1.9c-0.5,0.9-0.7,2-0.4,3l1,3.6l-10.2-5.9c-1.9-1.1-4.4-0.4-5.5,1.5
	c-1.1,1.9-0.4,4.4,1.5,5.5l10.2,5.9l-3.6,1c-2.1,0.6-3.4,2.8-2.8,4.9c0.6,2.1,2.8,3.4,4.9,2.8l11.4-3l8.2,4.7L47.4,62
	c-0.7,1.2-0.7,2.8,0,4l1.3,2.2L40.5,73l-11.4-3c-2.1-0.6-4.3,0.7-4.9,2.8c-0.3,1.1-0.1,2.1,0.4,3c0.5,0.9,1.4,1.6,2.4,1.9l3.6,1
	l-10.2,5.9c-1.9,1.1-2.6,3.6-1.5,5.5s3.6,2.6,5.5,1.5l10.2-5.9l-1,3.6c-0.6,2.1,0.7,4.3,2.8,4.9c2.1,0.6,4.3-0.7,4.9-2.8l3-11.4
	l8.2-4.7l1.3,2.2c0.7,1.2,2,2,3.5,2H60v9.5l-8.3,8.3c-1.6,1.6-1.6,4.1,0,5.7c1.6,1.6,4.1,1.6,5.7,0l2.7-2.7V112c0,2.2,1.8,4,4,4
	s4-1.8,4-4v-11.8l2.7,2.7c0.8,0.8,1.8,1.2,2.8,1.2c1,0,2-0.4,2.8-1.2c1.6-1.6,1.6-4.1,0-5.7L68,88.9v-9.5h2.6c1.4,0,2.8-0.8,3.5-2
	l1.3-2.2l8.2,4.7l3,11.4c0.6,2.1,2.8,3.4,4.9,2.8c2.1-0.6,3.4-2.8,2.8-4.9l-1-3.6l10.2,5.9c1.9,1.1,4.4,0.4,5.5-1.5
	C110.1,88.1,109.5,85.6,107.6,84.5z M68,70.9v0.5h-8v-0.5l-0.4,0.2l-4-6.9L56,64l-0.4-0.2l4-6.9l0.4,0.2v-0.5h8v0.5l0.4-0.2l4,6.9
	L72,64l0.4,0.2l-4,6.9L68,70.9z"/>
</svg>
