<svg version="1.1" id="Icon" xmlns="http://www.w3.org/2000/svg" xmlns:xlink="http://www.w3.org/1999/xlink" x="0px" y="0px"
	 width="128px" height="128px" viewBox="0 0 128 128" style="enable-background:new 0 0 128 128;" xml:space="preserve">
<style type="text/css">
	.svg-weather{fill:#000000;}
</style>
<path id="Umbrella" class="svg-weather" d="M102.8,89.4c12.3-21.7,5.8-49.1-14.4-63l1.1-1.9c1.1-1.9,0.4-4.4-1.5-5.5
	c-1.9-1.1-4.4-0.4-5.5,1.5l-1.1,1.9c-22.3-10.5-49.5-2.3-62,19.4c-1.1,1.9-0.4,4.4,1.5,5.5c1.9,1.1,4.4,0.4,5.5-1.5
	c1.9-3.3,6.2-4.5,9.6-2.6c3.3,1.9,4.5,6.2,2.6,9.6c-1.1,1.9-0.4,4.4,1.5,5.5c1.9,1.1,4.4,0.4,5.5-1.5c1.9-3.3,6.2-4.5,9.6-2.6
	c3.3,1.9,4.5,6.2,2.6,9.6l-21,36.4c-1.1,1.9-3.6,2.6-5.5,1.5c-1.9-1.1-2.6-3.6-1.5-5.5c1.1-1.9,0.4-4.4-1.5-5.5
	c-1.9-1.1-4.4-0.4-5.5,1.5c-3.3,5.7-1.3,13.1,4.4,16.4c5.7,3.3,13.1,1.3,16.4-4.4l21-36.4c1.9-3.3,6.2-4.5,9.6-2.6
	c3.3,1.9,4.5,6.2,2.6,9.6c-1.1,1.9-0.4,4.4,1.5,5.5c1.9,1.1,4.4,0.4,5.5-1.5c1.9-3.3,6.2-4.5,9.6-2.6c3.3,1.9,4.5,6.2,2.6,9.6
	c-1.1,1.9-0.4,4.4,1.5,5.5c0,0,0,0,0,0c1.9,1.1,4.4,0.4,5.5-1.5C102.7,89.7,102.8,89.6,102.8,89.4z M97.1,69.3
	c-3.8-2.2-8.1-2.5-11.9-1.3c-0.9-3.9-3.4-7.5-7.1-9.7c-2.2-1.3-4.6-1.9-6.9-2c-1.7-0.1-3.4,0.2-5,0.6c-0.4-1.6-1-3.2-1.9-4.6
	c-1.3-2-3-3.8-5.2-5c-3.8-2.2-8.1-2.5-11.9-1.3c-0.9-3.9-3.4-7.5-7.1-9.7c-1.3-0.8-2.7-1.3-4.1-1.6c11.5-9.3,27.6-11.7,41.6-5.4
	c1.2,0.5,2.4,1.1,3.6,1.8c1.2,0.7,2.3,1.4,3.4,2.2c12.4,8.9,18.4,24.1,16.2,38.7C99.6,71,98.4,70.1,97.1,69.3z"/>
</svg>
