<svg version="1.1" id="Icon" xmlns="http://www.w3.org/2000/svg" xmlns:xlink="http://www.w3.org/1999/xlink" x="0px" y="0px"
	 width="128px" height="128px" viewBox="0 0 128 128" style="enable-background:new 0 0 128 128;" xml:space="preserve">
<style type="text/css">
	.svg-weather{fill:#000000;}
</style>
<path id="Wind_2_" class="svg-weather" d="M107.6,44h-4c-2.2,0-4,1.8-4,4s1.8,4,4,4h4c2.2,0,4,1.8,4,4c0,2.2-1.8,4-4,4h-20H68.4h-56
	c-2.2,0-4,1.8-4,4s1.8,4,4,4h56h19.2c2.2,0,4,1.8,4,4c0,2.2-1.8,4-4,4h-4c-2.2,0-4,1.8-4,4s1.8,4,4,4h4c6.6,0,12-5.4,12-12
	c0-1.4-0.3-2.7-0.7-4h8.7c6.6,0,12-5.4,12-12S114.2,44,107.6,44z"/>
<path id="Wind_1_" class="svg-weather" d="M21.9,52h53.2c6.6,0,12-5.4,12-12s-5.4-12-12-12h-4c-2.2,0-4,1.8-4,4s1.8,4,4,4h4c2.2,0,4,1.8,4,4
	c0,2.2-1.8,4-4,4H21.9c-2.2,0-4,1.8-4,4S19.7,52,21.9,52z"/>
<path id="Wind_3_" class="svg-weather" d="M42.4,76h19.2c6.6,0,12,5.4,12,12s-5.4,12-12,12h-4c-2.2,0-4-1.8-4-4s1.8-4,4-4h4c2.2,0,4-1.8,4-4
	c0-2.2-1.8-4-4-4H42.4c-2.2,0-4-1.8-4-4S40.2,76,42.4,76z"/>
</svg>
